<?xml version="1.0"?><svg width="793.7007874015749" height="1122.5196850393702" xmlns="http://www.w3.org/2000/svg">
 <title>Thought bubble</title>

 <g>
  <title>Layer 1</title>
  <g id="g623">
   <path fill="none" fill-rule="evenodd" stroke="black" stroke-width="7.5" fill-opacity="0.75" id="path614" d="m327.277374,684.540039c-13.839691,81.308533 107.257965,88.228333 114.177948,17.299744c22.489563,76.118591 126.287598,70.928589 140.127319,-25.949585c25.949463,51.899109 108.987915,12.109741 69.198792,-32.869385c41.519165,31.139465 133.207397,-22.489502 51.898987,-81.308472c53.629028,3.4599 98.608154,-169.536804 -38.059387,-112.447876c65.738831,-79.578552 -67.468628,-141.857361 -110.717957,-60.548889c5.190002,-43.249207 -46.709106,-36.329315 -51.898987,-6.919891c34.599426,-76.11853 -140.127319,-160.886978 -143.58728,3.459961c-36.329346,-83.038422 -141.857269,-34.599365 -100.338104,31.139404c-25.949493,-29.409424 -44.979111,8.649872 -29.409454,19.029633c-67.468842,-74.38858 -152.237137,76.118591 -58.81897,96.878235c-102.068062,15.569763 -31.139435,110.717896 20.759583,74.388611c-32.869415,24.219482 -3.459915,98.608215 69.198822,57.088928c-31.139435,43.249207 55.358978,74.388611 67.468689,20.759583z"/>
   <path fill="none" fill-rule="evenodd" stroke="black" stroke-width="5" fill-opacity="0.75" id="path619" d="m233.78714,801.323425c-22.489548,-43.249146 -70.928787,43.249268 -5.189911,43.249268c65.738678,0 31.139435,-64.00885 5.189911,-43.249268z"/>
   <path fill="none" fill-opacity="0.75" fill-rule="evenodd" stroke="#000000" stroke-width="5" id="path620" d="m107.280212,891.025146c34.572556,-6.262451 23.822159,-39.553589 -0.333008,-42.782288c-24.154984,-3.228577 -40.29924,8.566345 -31.794144,22.975708c8.505249,14.409485 17.402481,9.994446 22.749954,5.678772c-1.700638,3.414063 -4.062286,17.24231 9.377197,14.127808z"/>
   <path fill="none" fill-opacity="0.75" fill-rule="evenodd" stroke="#000000" stroke-width="5" id="path621" d="m168.443954,864.113159c34.572388,-6.262451 23.822113,-39.55365 -0.333023,-42.782227c-24.155136,-3.228699 -40.299393,8.566223 -31.794144,22.975647c8.505096,14.409485 17.402313,9.994507 22.749802,5.678833c-1.7005,3.41394 -4.062271,17.242188 9.377365,14.127747z"/>
   <path fill="none" fill-opacity="0.75" fill-rule="evenodd" stroke="#000000" stroke-width="7.02858" id="path622" d="m286.883636,788.526978c32.24588,63.901001 90.034393,-69.169617 3.985443,-65.462036c-86.048965,3.707581 -36.604309,98.206909 -3.985443,65.462036z"/>
  </g>
 </g>
</svg>