<svg class="displayed_equation" xmlns="http://www.w3.org/2000/svg" xmlns:xlink="http://www.w3.org/1999/xlink" width="326.85pt" height="262.55pt" viewBox="0 0 326.85 262.55" version="1.1">
  <defs>
    <clipPath id="svg129125856901tikz_00001clip1">
      <path d="M 183 143 L 311.117188 143 L 311.117188 246.8125 L 183 246.8125 Z M 183 143 " />
    </clipPath>
    <clipPath id="svg129125856901tikz_00001clip2">
      <path d="M 15.734375 15.734375 L 105 15.734375 L 105 100 L 15.734375 100 Z M 15.734375 15.734375 " />
    </clipPath>
  </defs>
  <g id="svg129125856901tikz_00001surface6">
    <path style=" stroke:none;fill-rule:nonzero;fill:rgb(80.076599%,59.959412%,39.988708%);fill-opacity:1;" d="M 196.203125 107.523438 C 168.488281 86.199219 140.851563 67.210938 115.1875 51.5 L 121.046875 47.460938 L 102.449219 45.1875 L 112.90625 62.394531 L 113.695313 54.03125 C 139.238281 69.671875 166.773438 88.585938 194.378906 109.828125 C 208.363281 120.59375 221.550781 131.328125 233.789063 141.84375 L 238.300781 141.84375 C 225.308594 130.589844 211.210938 119.074219 196.203125 107.523438 Z M 196.203125 107.523438 " />
    <path style=" stroke:none;fill-rule:nonzero;fill:rgb(100%,79.296875%,16.479492%);fill-opacity:1;" d="M 232.707031 118.988281 C 232.707031 161.019531 198.632813 195.101563 156.597656 195.101563 C 114.5625 195.101563 80.484375 161.019531 80.484375 118.988281 C 80.484375 76.953125 114.5625 42.875 156.597656 42.875 C 198.632813 42.875 232.707031 76.953125 232.707031 118.988281 Z M 232.707031 118.988281 " />
    <g clip-path="url(#svg129125856901tikz_00001clip1)" clip-rule="nonzero">
      <path style=" stroke:none;fill-rule:nonzero;fill:rgb(80.076599%,59.959412%,39.988708%);fill-opacity:1;" d="M 302.917969 213.652344 C 292.648438 196.816406 273.246094 174.742188 247.394531 150.695313 L 252.621094 148.203125 L 237.699219 143.695313 L 243.835938 159.574219 L 245.707031 152.515625 C 258.226563 164.160156 269.214844 175.328125 278.363281 185.632813 C 288.039063 196.535156 295.644531 206.472656 300.8125 214.953125 C 305.988281 223.417969 308.671875 230.472656 308.652344 235.335938 C 308.628906 238.410156 307.6875 240.515625 305.722656 242.019531 C 303.824219 243.460938 300.878906 244.25 296.949219 244.246094 C 290.410156 244.253906 281.289063 242.066406 270.34375 237.9375 C 248.46875 229.691406 219.285156 213.734375 187.589844 192.484375 L 183.152344 192.484375 C 200.128906 203.992188 216.441406 214.027344 231.398438 222.230469 C 245.492188 229.96875 258.378906 236.078125 269.476563 240.265625 C 280.582031 244.445313 289.886719 246.722656 296.949219 246.726563 C 301.183594 246.726563 304.660156 245.910156 307.199219 244.007813 L 306.460938 243.015625 L 307.199219 244.007813 C 309.863281 242.027344 311.140625 238.933594 311.117188 235.335938 C 311.101563 229.605469 308.1875 222.328125 302.917969 213.652344 Z M 302.917969 213.652344 " />
    </g>
    <g clip-path="url(#svg129125856901tikz_00001clip2)" clip-rule="nonzero">
      <path style=" stroke:none;fill-rule:nonzero;fill:rgb(80.076599%,59.959412%,39.988708%);fill-opacity:1;" d="M 21.332031 20.671875 C 23.292969 19.191406 26.335938 18.378906 30.390625 18.378906 L 30.417969 18.378906 C 37.191406 18.371094 46.640625 20.617188 57.972656 24.867188 C 71.09375 29.785156 81.894531 34.117188 99.121094 43.867188 L 104.28125 43.867188 C 100.609375 41.75 101.855469 42.957031 98.320313 41.03125 C 83.714844 33.070313 70.371094 26.78125 58.875 22.476563 C 47.367188 18.171875 37.734375 15.828125 30.417969 15.820313 C 26.03125 15.824219 22.425781 16.664063 19.796875 18.621094 C 17.039063 20.660156 15.714844 23.84375 15.734375 27.546875 C 15.757813 33.445313 18.773438 40.933594 24.234375 49.859375 C 31.511719 61.714844 43.21875 76.09375 58.460938 91.910156 L 51.640625 94.507813 L 68.542969 99.164063 L 62.351563 84.261719 L 60.277344 90.105469 C 56.519531 86.207031 52.976563 82.394531 49.667969 78.691406 C 39.648438 67.476563 31.765625 57.25 26.414063 48.523438 C 21.050781 39.808594 18.273438 32.550781 18.292969 27.546875 C 18.316406 24.382813 19.289063 22.214844 21.332031 20.671875 Z M 21.332031 20.671875 " />
    </g>
    <path style=" stroke:none;fill-rule:nonzero;fill:rgb(12.547302%,59.179688%,73.631287%);fill-opacity:1;" d="M 254.835938 217.148438 C 254.835938 230.390625 244.097656 241.128906 230.851563 241.128906 C 217.605469 241.128906 206.867188 230.390625 206.867188 217.148438 C 206.867188 203.898438 217.605469 193.164063 230.851563 193.164063 C 244.097656 193.164063 254.835938 203.898438 254.835938 217.148438 Z M 254.835938 217.148438 " />
    <path style=" stroke:none;fill-rule:nonzero;fill:rgb(68.554688%,88.671875%,34.910583%);fill-opacity:1;" d="M 230.394531 203.683594 C 230.324219 203.226563 229.941406 203.847656 229.945313 203.683594 C 229.945313 203.519531 229.722656 203.71875 229.722656 203.574219 C 229.722656 203.429688 229.449219 203.5 229.761719 203.28125 C 230.066406 203.066406 229.78125 203.113281 229.910156 202.835938 C 230.039063 202.558594 229.753906 202.40625 229.773438 202.203125 C 229.792969 202 229.433594 202.148438 229.445313 201.984375 C 229.460938 201.820313 229.167969 202.058594 229.171875 201.914063 C 229.179688 201.773438 228.914063 201.875 228.929688 201.847656 C 228.945313 201.820313 228.894531 201.703125 228.757813 201.636719 C 228.621094 201.570313 228.363281 201.433594 228.628906 201.359375 C 228.894531 201.28125 228.492188 201.195313 228.636719 201.042969 C 228.777344 200.894531 228.300781 200.925781 228.398438 200.691406 C 228.492188 200.453125 228.234375 200.445313 228.1875 200.269531 C 228.136719 200.089844 228.050781 200.480469 227.796875 200.675781 C 227.546875 200.875 227.328125 200.765625 227.230469 200.683594 C 227.136719 200.601563 227.144531 200.648438 227.15625 200.5625 C 227.171875 200.472656 227.148438 200.5 227.078125 200.429688 C 227 200.363281 227.144531 200.164063 227.21875 200.042969 C 227.292969 199.917969 227.019531 200 226.925781 199.988281 C 226.828125 199.972656 226.882813 199.820313 226.851563 199.722656 C 226.816406 199.628906 226.59375 199.527344 226.566406 199.558594 C 226.539063 199.59375 226.339844 199.605469 226.164063 199.503906 C 225.984375 199.402344 225.957031 199.445313 225.726563 199.558594 C 225.496094 199.675781 225.863281 199.632813 225.71875 199.785156 C 225.578125 199.933594 225.652344 199.859375 225.683594 199.980469 C 225.71875 200.105469 225.671875 200.078125 225.558594 200.261719 C 225.441406 200.445313 225.433594 200.363281 225.277344 200.429688 C 225.121094 200.5 225.160156 200.429688 225.257813 200.636719 C 225.351563 200.839844 225.414063 200.714844 225.378906 201.023438 C 225.34375 201.332031 225.25 201.324219 224.996094 201.523438 C 224.746094 201.71875 224.539063 201.738281 224.351563 201.738281 C 224.160156 201.738281 224.335938 201.875 224.316406 202.304688 C 224.296875 202.734375 224.125 202.578125 223.980469 202.769531 C 223.835938 202.960938 223.703125 202.714844 223.640625 202.535156 C 223.582031 202.359375 223.480469 202.285156 223.535156 202.140625 C 223.589844 202 223.496094 201.96875 223.730469 201.691406 C 223.960938 201.410156 223.753906 201.609375 223.539063 201.425781 C 223.328125 201.242188 223.253906 201.441406 223.121094 201.261719 C 222.996094 201.085938 222.851563 200.984375 222.785156 200.757813 C 222.714844 200.53125 222.601563 200.746094 222.484375 200.582031 C 222.367188 200.417969 222.394531 200.675781 222.195313 200.582031 C 222 200.484375 222.511719 200.164063 222.3125 200.082031 C 222.117188 200 222.140625 199.96875 222.613281 199.515625 C 223.085938 199.070313 222.8125 199.363281 223.042969 199.164063 C 223.273438 198.964844 223.296875 199.089844 223.546875 199.054688 C 223.796875 199.019531 223.832031 198.816406 224.171875 198.714844 C 224.515625 198.613281 224.199219 198.761719 224.425781 198.71875 C 224.648438 198.679688 224.65625 198.578125 224.855469 198.414063 C 225.050781 198.25 225.03125 198.449219 224.9375 198.589844 C 224.839844 198.734375 224.792969 198.800781 224.691406 198.933594 C 224.589844 199.0625 224.726563 199.121094 224.902344 199.09375 C 225.078125 199.070313 225.003906 198.972656 225.121094 198.992188 C 225.242188 199.015625 225.332031 199.0625 225.523438 198.898438 C 225.714844 198.734375 225.296875 198.621094 225.25 198.476563 C 225.203125 198.332031 225.304688 198.476563 225.496094 198.421875 C 225.601563 198.390625 225.6875 198.269531 225.742188 198.167969 C 225.859375 198.132813 225.976563 198.085938 226.066406 198.03125 C 226.355469 197.867188 226.40625 197.585938 226.570313 197.488281 C 226.734375 197.390625 226.953125 197.570313 227.15625 197.695313 C 227.363281 197.816406 227.363281 198.019531 227.402344 198.238281 C 227.441406 198.457031 227.308594 198.441406 226.992188 198.644531 C 226.679688 198.851563 226.953125 198.933594 227.035156 199.148438 C 227.117188 199.367188 227.210938 199.3125 227.429688 199.601563 C 227.648438 199.886719 227.851563 199.722656 228.097656 199.777344 C 228.34375 199.832031 228.179688 199.515625 228.371094 199.53125 C 228.5625 199.546875 228.519531 199.121094 228.328125 199.027344 C 228.136719 198.933594 228.191406 198.753906 228.316406 198.632813 C 228.4375 198.511719 228.492188 198.90625 228.730469 198.898438 C 228.96875 198.894531 228.902344 198.496094 228.929688 198.292969 C 228.957031 198.085938 228.492188 198.113281 228.289063 197.949219 C 228.082031 197.785156 228.277344 197.71875 228.535156 197.707031 C 228.792969 197.691406 228.574219 197.445313 228.164063 197.367188 C 227.757813 197.28125 228.003906 197.351563 227.960938 197.148438 C 227.921875 196.941406 227.878906 197.230469 227.703125 197.121094 C 227.523438 197.011719 227.648438 196.886719 227.554688 196.644531 C 227.457031 196.398438 227.308594 196.75 227.0625 196.601563 C 226.929688 196.523438 226.859375 196.546875 226.777344 196.570313 C 226.785156 196.566406 226.792969 196.53125 226.78125 196.527344 C 226.726563 196.515625 226.53125 196.589844 226.53125 196.589844 C 226.53125 196.589844 225.96875 196.757813 225.847656 196.859375 C 225.738281 196.957031 225.945313 197.421875 225.945313 197.421875 C 225.945313 197.421875 225.761719 197.527344 225.566406 197.664063 C 225.53125 197.542969 225.445313 197.417969 225.34375 197.351563 C 225.113281 197.203125 225.304688 197.203125 225.441406 197.011719 C 225.789063 196.523438 225.847656 196.703125 226.148438 196.492188 C 226.625 196.167969 226.148438 196.492188 225.683594 196.410156 C 225.222656 196.332031 225.507813 196.710938 225.183594 196.722656 C 224.855469 196.738281 224.734375 197.023438 224.378906 197.078125 C 224.359375 197.082031 224.339844 197.085938 224.324219 197.089844 C 224.3125 197.117188 224.332031 196.714844 224.316406 196.703125 C 224.371094 196.679688 224.453125 196.636719 224.582031 196.5625 C 225.183594 196.207031 224.734375 196.234375 224.582031 196.136719 C 224.433594 196.042969 224.433594 196.300781 224.296875 196.195313 C 224.160156 196.085938 224.1875 196.003906 224.378906 195.675781 C 224.570313 195.347656 223.996094 195.621094 223.738281 195.757813 C 223.480469 195.894531 223.273438 195.769531 223.273438 195.769531 C 222.863281 195.988281 223.085938 196.070313 223.300781 196.058594 C 223.519531 196.042969 223.410156 196.179688 223.300781 196.316406 C 223.191406 196.453125 223.152344 196.574219 222.960938 196.4375 C 222.769531 196.300781 222.863281 196.574219 222.675781 196.738281 C 222.484375 196.902344 222.441406 196.574219 222.566406 196.398438 C 222.6875 196.222656 222.359375 196.355469 222.433594 196.207031 C 222.507813 196.058594 222.660156 196.113281 222.851563 195.878906 C 223.042969 195.648438 222.457031 195.714844 222.101563 195.878906 C 221.746094 196.042969 221.886719 195.867188 222.457031 195.363281 C 222.804688 195.054688 222.632813 194.859375 222.40625 194.691406 C 220.839844 195.28125 219.355469 196.027344 217.964844 196.914063 C 218.453125 196.867188 218.835938 196.773438 218.691406 197.023438 C 218.492188 197.367188 218.113281 197.949219 217.109375 199.011719 C 215.660156 200.546875 215.425781 201.628906 214.753906 202.355469 C 214.082031 203.082031 212.773438 203.320313 212.664063 205.117188 C 212.554688 206.917969 212.175781 208.222656 212.175781 208.222656 C 212.175781 208.222656 212.011719 209.277344 211.917969 209.933594 C 211.828125 210.585938 212.15625 211.332031 212.339844 211.292969 C 212.519531 211.257813 212.429688 211.167969 212.28125 210.839844 C 212.136719 210.511719 212.097656 209.902344 212.292969 208.878906 C 212.359375 208.523438 212.402344 208.261719 212.511719 207.898438 C 212.621094 207.535156 212.683594 207.535156 212.828125 208.042969 C 212.972656 208.550781 212.863281 208.53125 212.664063 209.242188 C 212.464844 209.949219 212.863281 210.585938 212.953125 211.09375 C 213.046875 211.605469 213.28125 212.4375 212.953125 212.765625 C 212.628906 213.09375 213.191406 213.875 213.320313 214 C 213.445313 214.128906 213.699219 214.347656 213.699219 214.582031 C 213.699219 214.820313 214.808594 215.253906 215.261719 215.183594 C 215.71875 215.109375 215.554688 215.292969 215.644531 215.4375 C 215.734375 215.582031 215.988281 215.925781 216.351563 216.492188 C 216.714844 217.054688 216.605469 216.453125 216.84375 216.746094 C 217.078125 217.035156 217.152344 216.855469 217.589844 216.964844 C 218.023438 217.070313 217.550781 217.273438 217.695313 217.324219 C 217.84375 217.382813 218.132813 217.78125 218.097656 218.144531 C 218.058594 218.507813 217.988281 218.507813 218.40625 218.542969 C 218.824219 218.582031 218.859375 218.761719 218.949219 219.085938 C 219.039063 219.414063 219.402344 219.527344 219.695313 219.78125 C 219.984375 220.035156 220.1875 219.941406 220.058594 219.707031 C 219.929688 219.46875 219.96875 219.398438 220.296875 219.234375 C 220.621094 219.070313 220.441406 219.632813 220.894531 219.78125 C 221.347656 219.925781 220.785156 219.453125 220.746094 219.105469 C 220.714844 218.761719 220.476563 219.089844 220.148438 218.960938 C 219.820313 218.835938 220.078125 219.304688 219.820313 219.199219 C 219.566406 219.089844 219.515625 219.304688 219.53125 218.996094 C 219.550781 218.6875 219.277344 218.871094 219.078125 218.617188 C 218.878906 218.359375 218.914063 218.453125 218.839844 218.164063 C 218.769531 217.871094 218.695313 217.851563 218.96875 217.417969 C 219.242188 216.980469 219.039063 216.746094 219.167969 216.527344 C 219.296875 216.308594 218.949219 216.34375 218.878906 216.273438 C 218.804688 216.199219 218.570313 216.035156 218.332031 216 C 218.097656 215.964844 218.078125 216.199219 217.789063 216 C 217.496094 215.800781 217.132813 215.945313 217.277344 215.765625 C 217.425781 215.582031 217.550781 215.402344 217.640625 215.253906 C 217.734375 215.109375 217.695313 214.726563 218.023438 214.65625 C 218.351563 214.582031 217.90625 214.535156 217.933594 214.382813 C 217.964844 214.214844 218.242188 213.984375 218.296875 213.691406 C 218.351563 213.402344 217.53125 213.636719 217.242188 213.621094 C 216.953125 213.601563 217.132813 214.273438 216.753906 214.457031 C 216.371094 214.636719 216.550781 215.054688 216.296875 214.78125 C 216.042969 214.511719 215.554688 214.582031 215.425781 214.273438 C 215.296875 213.964844 215.078125 213.730469 215.007813 213.402344 C 214.9375 213.078125 214.9375 212.3125 215.242188 211.914063 C 215.554688 211.511719 215.496094 211.003906 215.71875 210.660156 C 215.933594 210.3125 216.097656 210.242188 216.679688 210.003906 C 217.261719 209.769531 217.171875 209.839844 217.386719 209.894531 C 217.605469 209.949219 217.824219 210.222656 218.023438 210.039063 C 218.222656 209.859375 218.023438 210.039063 218.585938 209.949219 C 219.148438 209.859375 219.257813 210.078125 219.441406 210.058594 C 219.621094 210.039063 219.660156 210.460938 219.894531 210.351563 C 220.132813 210.242188 220.113281 210.367188 220.402344 210.730469 C 220.695313 211.09375 220.566406 211.1875 220.367188 211.550781 C 220.167969 211.914063 220.492188 212.023438 220.746094 212.457031 C 221.003906 212.894531 220.894531 212.203125 221.019531 211.875 C 221.148438 211.550781 221.074219 211.238281 220.949219 210.730469 C 220.820313 210.222656 220.894531 210.058594 221.238281 209.625 C 221.585938 209.1875 221.746094 209.097656 222.328125 209.058594 C 222.910156 209.023438 223.09375 208.441406 223.238281 208.117188 C 223.382813 207.789063 223.109375 207.734375 223.328125 207.261719 C 223.546875 206.789063 223.511719 207.644531 223.621094 207.261719 C 223.730469 206.878906 223.621094 207.261719 223.984375 207.027344 C 224.347656 206.789063 224 206.660156 224.527344 206.597656 C 225.054688 206.535156 225.488281 205.863281 225.710938 205.761719 C 225.925781 205.660156 225.890625 205.445313 226.109375 205.535156 C 226.328125 205.625 226.144531 205.246094 226.6875 205.117188 C 227.234375 204.992188 227.144531 205.097656 227.027344 205.261719 C 226.910156 205.425781 226.871094 205.261719 226.652344 205.589844 C 226.433594 205.917969 227.035156 205.71875 227.253906 205.464844 C 227.46875 205.210938 228.070313 205.226563 228.507813 204.957031 C 228.941406 204.683594 228.523438 204.773438 228.324219 204.628906 C 228.125 204.480469 228.144531 204.863281 227.78125 205.007813 C 227.414063 205.152344 227.433594 204.882813 227.289063 204.574219 C 227.144531 204.265625 227.433594 204.210938 227.542969 203.917969 C 227.652344 203.628906 227.144531 203.882813 226.796875 203.863281 C 226.453125 203.847656 226.34375 203.882813 226.597656 203.738281 C 226.851563 203.59375 226.890625 203.683594 226.851563 203.554688 C 226.816406 203.429688 226.851563 203.445313 227.398438 203.390625 C 227.941406 203.335938 228.542969 203.609375 229.015625 203.210938 C 229.488281 202.8125 229.085938 202.972656 229.523438 203.082031 C 229.960938 203.191406 229.539063 203.28125 229.25 203.429688 C 228.960938 203.574219 229.378906 203.828125 229.015625 203.9375 C 228.652344 204.046875 229.160156 204.355469 229.8125 204.28125 C 230.46875 204.210938 230.085938 204.390625 230.285156 204.574219 C 230.484375 204.753906 230.414063 204.683594 230.613281 204.464844 C 230.8125 204.246094 230.46875 204.136719 230.394531 203.683594 Z M 224.316406 196.703125 C 224.175781 196.761719 224.269531 196.671875 224.316406 196.703125 Z M 224.316406 196.703125 " />
    <path style=" stroke:none;fill-rule:nonzero;fill:rgb(68.554688%,88.671875%,34.910583%);fill-opacity:1;" d="M 254.835938 217.144531 C 254.835938 221.753906 253.535156 226.054688 251.285156 229.710938 C 251.007813 228.957031 251.507813 227.464844 252.277344 225.449219 C 253.050781 223.429688 252.707031 221.523438 252.277344 220.488281 C 251.851563 219.453125 252.160156 219.070313 252.269531 218.308594 C 252.378906 217.546875 251.453125 218.6875 251.398438 218.199219 C 251.34375 217.707031 250.796875 217.546875 250.414063 217.597656 C 250.035156 217.652344 250.035156 218.742188 249.488281 218.582031 C 248.945313 218.417969 249.328125 218.035156 248.671875 219.070313 C 248.019531 220.105469 246.546875 218.851563 245.839844 218.308594 C 245.128906 217.761719 244.695313 217.761719 244.695313 216.5625 C 244.695313 215.363281 244.695313 214.164063 244.367188 214.054688 C 244.039063 213.949219 243.765625 213.238281 243.496094 212.148438 C 243.222656 211.058594 244.367188 210.570313 245.292969 209.75 C 246.21875 208.933594 245.074219 208.878906 245.074219 208.878906 C 245.074219 208.878906 244.640625 208.441406 244.746094 207.570313 C 244.855469 206.699219 245.347656 207.082031 245.839844 207.082031 C 246.328125 207.082031 246.546875 206.808594 246.875 205.933594 C 247.199219 205.0625 247.09375 205.171875 247.964844 205.226563 C 248.835938 205.277344 248.617188 206.644531 248.890625 206.585938 C 249.164063 206.523438 249.054688 206.042969 249.382813 206.261719 C 249.707031 206.480469 250.199219 206.863281 250.472656 206.261719 C 250.742188 205.664063 249.980469 205.773438 250.472656 205.554688 C 250.960938 205.335938 251.34375 205.664063 251.125 205.0625 C 251.03125 204.808594 251.066406 204.554688 251.136719 204.347656 C 253.480469 208.050781 254.835938 212.441406 254.835938 217.144531 Z M 254.835938 217.144531 " />
    <path style=" stroke:none;fill-rule:nonzero;fill:rgb(68.554688%,88.671875%,34.910583%);fill-opacity:1;" d="M 249.546875 203.523438 C 248.9375 202.929688 248.410156 201.929688 248.496094 201.480469 C 248.507813 201.410156 248.78125 201.699219 248.726563 201.300781 C 248.722656 201.273438 248.746094 201.246094 248.78125 201.21875 C 249.054688 201.523438 249.316406 201.835938 249.570313 202.152344 C 249.554688 202.304688 249.574219 202.472656 249.652344 202.652344 C 249.820313 203.019531 250.035156 204 249.546875 203.523438 Z M 249.546875 203.523438 " />
    <path style=" stroke:none;fill-rule:nonzero;fill:rgb(68.554688%,88.671875%,34.910583%);fill-opacity:1;" d="M 249.054688 203.984375 C 248.824219 203.984375 247.964844 202.992188 247.417969 202.503906 C 246.875 202.011719 247.195313 202.523438 247.0625 202.757813 C 246.929688 202.992188 246.601563 202.066406 246.382813 202.339844 C 246.351563 202.378906 246.3125 202.40625 246.269531 202.421875 C 246.355469 202.511719 246.460938 202.613281 246.574219 202.71875 C 246.890625 203.019531 247.078125 203.058594 247.132813 203.007813 C 247.1875 202.949219 247.324219 203.082031 247.324219 203.082031 L 247.785156 203.183594 C 247.785156 203.183594 248.101563 203.363281 248.089844 203.457031 C 248.078125 203.515625 247.8125 203.449219 247.789063 203.441406 C 247.828125 203.476563 248.257813 203.875 248.105469 204.09375 C 248.027344 204.207031 247.855469 203.863281 247.636719 203.632813 C 247.507813 203.496094 247.230469 203.375 247.144531 203.457031 C 247.066406 203.535156 246.886719 203.496094 246.695313 203.183594 C 246.554688 202.949219 246.011719 202.882813 245.757813 202.863281 C 245.761719 202.917969 245.769531 202.976563 245.785156 203.046875 C 245.945313 203.808594 245.292969 203.429688 245.292969 203.429688 C 245.292969 203.429688 245.402344 204.246094 245.292969 204.410156 C 245.183594 204.574219 245.128906 204.84375 245.566406 205.554688 C 246.003906 206.261719 244.804688 205.773438 244.910156 206.207031 C 245.019531 206.644531 244.449219 206.972656 243.453125 205.71875 C 242.460938 204.464844 242.539063 203.851563 243.453125 204.105469 C 244.082031 204.125 244.367188 203.863281 243.929688 203.347656 C 243.179688 202.789063 242.855469 202.828125 242.472656 202.515625 C 242.089844 202.207031 242.675781 202.011719 243.058594 201.902344 C 243.34375 201.929688 243.304688 201.699219 243.121094 201.542969 C 242.617188 201.121094 243.550781 201.25 243.222656 200.613281 C 243.058594 200.203125 243.15625 200.074219 243.222656 199.898438 C 243.378906 199.492188 243.878906 200.132813 243.714844 199.394531 C 243.550781 198.660156 244.558594 199.722656 244.121094 199.09375 C 243.6875 198.46875 242.703125 198.441406 243.113281 198.277344 C 243.523438 198.113281 242.777344 198.136719 242.675781 197.679688 C 242.566406 197.1875 242.4375 197.046875 242.089844 196.941406 C 242.066406 197.324219 242.703125 197.707031 242.242188 197.625 C 241.777344 197.542969 241.367188 197.378906 241.015625 196.96875 C 240.660156 196.5625 239.570313 195.960938 240.222656 196.671875 C 240.878906 197.378906 241.179688 197.734375 241.667969 197.867188 C 242.105469 197.921875 242.050781 197.953125 242.460938 198.359375 C 242.867188 198.769531 243.261719 199.824219 242.816406 199.601563 C 242.113281 199.246094 242.160156 198.726563 241.722656 198.441406 C 241.703125 198.425781 241.792969 198.945313 241.585938 198.988281 C 241.097656 199.230469 240.742188 198.332031 240.195313 198.058594 C 239.652344 197.789063 240.742188 197.867188 240.304688 197.488281 C 239.871094 197.105469 238.945313 196.535156 238.699219 196.070313 C 238.453125 195.609375 238.453125 195.089844 238.996094 195.472656 C 239.214844 195.851563 239.242188 195.144531 239.761719 195.550781 C 240.277344 195.960938 239.921875 195.71875 240.414063 195.988281 C 240.996094 196.304688 241.449219 196.234375 241.230469 196.058594 C 240.738281 195.65625 238.589844 195.15625 238.644531 194.558594 C 238.648438 194.523438 238.648438 194.488281 238.648438 194.457031 C 242.183594 195.671875 245.34375 197.691406 247.914063 200.292969 C 247.761719 200.355469 247.320313 200.585938 247.59375 200.953125 C 247.921875 201.386719 248.28125 201.410156 248.097656 201.902344 C 247.910156 202.394531 249.675781 203.988281 249.054688 203.984375 Z M 249.054688 203.984375 " />
    <path style=" stroke:none;fill-rule:nonzero;fill:rgb(68.554688%,88.671875%,34.910583%);fill-opacity:1;" d="M 239.789063 199.09375 C 240.320313 198.742188 240.117188 199.695313 240.414063 199.613281 C 240.714844 199.53125 240.855469 199.875 241.054688 200.023438 C 241.355469 200.246094 241.195313 200.132813 241.804688 200.511719 C 242.089844 200.691406 242.132813 200.839844 242.214844 201.03125 C 242.296875 201.222656 242.515625 200.648438 242.59375 200.894531 C 242.675781 201.140625 243.167969 201.277344 242.351563 201.601563 C 242.050781 201.601563 242.1875 201.957031 242.023438 201.929688 C 241.859375 201.902344 241.933594 201.371094 241.6875 201.398438 C 241.441406 201.425781 241.75 201.113281 241.421875 201.085938 C 241.097656 201.058594 241.792969 200.949219 241.410156 200.8125 C 241.027344 200.675781 240.789063 200.269531 240.84375 200.597656 C 240.898438 200.921875 241.34375 201.546875 241.097656 201.410156 C 240.851563 201.277344 241.125 201.765625 240.933594 201.765625 C 240.742188 201.765625 240.605469 201.683594 240.523438 201.410156 C 240.441406 201.140625 239.816406 201.03125 240.144531 200.949219 C 240.46875 200.867188 239.867188 200.613281 240.195313 200.511719 C 240.328125 200.472656 240.136719 200.144531 240.136719 200.144531 C 239.753906 199.949219 239.183594 199.660156 239.671875 199.742188 C 240.164063 199.824219 239.652344 199.1875 239.789063 199.09375 Z M 239.789063 199.09375 " />
    <path style="fill:none;stroke-width:0.877775;stroke-linecap:butt;stroke-linejoin:round;stroke:rgb(13.330078%,12.156677%,12.156677%);stroke-opacity:1;stroke-miterlimit:10;" d="M 2477.890625 591.085938 C 2477.890625 591.085938 2477.851563 591.085938 2477.851563 591.085938 Z M 2477.890625 591.085938 " transform="matrix(0.1,0,0,-0.1,0,262.55)" />
    <path style=" stroke:none;fill-rule:nonzero;fill:rgb(68.554688%,88.671875%,34.910583%);fill-opacity:1;" d="M 236.21875 197.898438 C 236.328125 197.851563 236.652344 197.949219 236.652344 198.074219 C 236.652344 198.195313 237.089844 198.269531 236.945313 198.394531 C 236.699219 198.597656 236.886719 198.796875 236.710938 198.753906 C 236.53125 198.714844 236.734375 198.972656 236.421875 198.878906 C 236.109375 198.78125 236.015625 198.890625 235.714844 198.660156 C 235.414063 198.425781 234.980469 198.46875 235.128906 198.195313 C 235.332031 197.964844 235.617188 198.128906 235.742188 198.222656 C 235.878906 198.359375 235.820313 198.027344 235.933594 198.074219 C 236.164063 198.167969 236.140625 197.929688 236.21875 197.898438 Z M 236.21875 197.898438 " />
    <path style=" stroke:none;fill-rule:nonzero;fill:rgb(68.554688%,88.671875%,34.910583%);fill-opacity:1;" d="M 229.183594 195.636719 C 229.300781 195.597656 229.734375 195.363281 230.03125 195.238281 C 230.15625 195.128906 230.238281 195.15625 230.371094 195.238281 C 230.507813 195.320313 230.824219 194.914063 230.960938 195.035156 C 231.09375 195.15625 231.273438 194.558594 231.914063 194.953125 C 232.207031 194.941406 232.238281 194.703125 232.441406 194.960938 C 232.648438 195.222656 232.789063 194.65625 233.015625 195.210938 C 233.164063 195.582031 233.425781 195.804688 233.5625 195.851563 C 233.867188 195.957031 234.351563 196.15625 234.1875 196.347656 C 234.023438 196.539063 233.835938 196.535156 234.078125 196.75 C 234.324219 196.96875 234.691406 196.835938 234.691406 196.996094 C 234.691406 197.132813 234.210938 197.039063 233.902344 197.039063 C 233.78125 197.039063 233.738281 197.214844 233.902344 197.269531 C 234.066406 197.324219 234.28125 197.242188 234.433594 197.269531 C 234.582031 197.296875 234.652344 197.554688 234.378906 197.652344 C 234.105469 197.746094 233.859375 197.910156 233.601563 197.828125 C 233.328125 197.84375 234.050781 198.320313 233.453125 198.484375 C 232.851563 198.648438 233.042969 198.359375 232.878906 198.484375 C 232.714844 198.605469 233.222656 198.671875 232.839844 198.78125 C 232.457031 198.890625 232.554688 199.027344 232.578125 199.148438 C 232.609375 199.273438 232.511719 199.355469 232.390625 199.421875 C 232.269531 199.492188 232.527344 199.519531 232.445313 199.886719 C 232.363281 200.253906 232.742188 200.417969 232.417969 200.363281 C 232.089844 200.308594 232.296875 199.941406 231.980469 199.996094 C 231.667969 200.050781 231.058594 199.722656 230.851563 199.339844 C 230.644531 198.960938 230.617188 198.890625 230.386719 198.714844 C 230.15625 198.535156 229.992188 198.277344 230.195313 198.210938 C 230.402344 198.140625 230.359375 198.046875 230.5625 198.046875 C 230.769531 198.046875 230.933594 198.132813 230.851563 197.886719 C 230.769531 197.636719 230.863281 197.636719 230.589844 197.691406 C 230.320313 197.746094 230.101563 197.542969 230.371094 197.527344 C 230.644531 197.515625 230.863281 197.570313 230.714844 197.363281 C 230.5625 197.160156 230.535156 196.984375 230.386719 197.148438 C 230.238281 197.3125 230.15625 197.472656 230.140625 197.078125 C 230.128906 196.683594 230.085938 196.699219 229.964844 196.4375 C 229.839844 196.179688 230.074219 196.152344 229.597656 196.195313 C 229.121094 196.234375 228.746094 196.289063 228.730469 196.140625 C 228.71875 195.988281 228.9375 195.71875 229.183594 195.636719 Z M 229.183594 195.636719 " />
    <path style=" stroke:none;fill-rule:nonzero;fill:rgb(68.554688%,88.671875%,34.910583%);fill-opacity:1;" d="M 234.433594 194.421875 C 234.515625 194.300781 235.195313 194.4375 235.007813 194.574219 C 234.816406 194.707031 235.089844 194.667969 235.386719 194.707031 C 235.6875 194.75 235.960938 194.871094 235.878906 194.898438 C 235.796875 194.925781 235.398438 194.777344 235.359375 194.898438 C 235.335938 194.980469 235.746094 195.058594 235.660156 195.078125 C 235.371094 195.128906 234.996094 194.996094 234.789063 194.925781 C 234.695313 194.894531 234.421875 194.847656 234.433594 194.75 C 234.441406 194.679688 234.691406 194.667969 234.691406 194.667969 C 234.691406 194.667969 234.382813 194.496094 234.433594 194.421875 Z M 234.433594 194.421875 " />
    <path style=" stroke:none;fill-rule:nonzero;fill:rgb(68.554688%,88.671875%,34.910583%);fill-opacity:1;" d="M 220.203125 222.652344 C 220.023438 222.6875 219.890625 222.828125 219.855469 223.484375 C 219.820313 224.136719 219.628906 224.605469 219.84375 225.195313 C 220.300781 225.738281 221.113281 227.609375 221.476563 227.828125 C 222.273438 229.316406 223.765625 230.042969 224.328125 230.296875 C 224.890625 230.550781 224.835938 233.585938 224.636719 233.714844 C 224.4375 233.84375 224.855469 234.222656 224.746094 234.277344 C 224.636719 234.332031 224.925781 234.714844 224.925781 235.1875 C 224.925781 235.65625 224.980469 235.585938 224.761719 235.929688 C 224.546875 236.277344 225.109375 237.65625 225.289063 238.257813 C 225.472656 238.855469 225.925781 239.128906 226.179688 239.257813 C 226.433594 239.382813 226.652344 239.402344 227.105469 239.546875 C 227.5625 239.695313 228.378906 239.871094 228.199219 239.546875 C 227.726563 239.582031 227.199219 238.945313 227.34375 238.945313 C 227.488281 238.945313 227.34375 238.78125 227.398438 238.621094 C 227.453125 238.457031 227.726563 238.511719 227.796875 238.382813 C 227.871094 238.257813 227.507813 238.238281 227.363281 238.074219 C 227.214844 237.910156 227.453125 237.875 227.726563 237.820313 C 227.996094 237.765625 227.78125 237.546875 227.996094 237.382813 C 228.214844 237.21875 227.597656 237.039063 227.835938 237.09375 C 228.070313 237.148438 228.234375 237.128906 228.269531 236.949219 C 228.304688 236.765625 227.941406 236.585938 228.398438 236.601563 C 228.980469 236.765625 229.703125 236.367188 229.886719 236.292969 C 230.070313 236.222656 229.761719 235.804688 229.523438 235.683594 C 229.289063 235.5625 228.871094 235.3125 228.960938 235.09375 C 229.050781 234.878906 229.269531 235.132813 229.414063 235.367188 C 229.5625 235.601563 230.269531 235.53125 230.414063 235.65625 C 230.558594 235.785156 230.976563 235.386719 231.214844 235.132813 C 231.449219 234.878906 231.8125 234.367188 232.339844 234.078125 C 232.867188 233.785156 232.792969 233.570313 232.722656 233.296875 C 232.648438 233.023438 233.046875 232.695313 233.449219 232.496094 C 233.847656 232.296875 234.191406 232.078125 234.828125 232.078125 C 235.464844 232.078125 235.191406 231.660156 235.609375 231.425781 C 236.027344 231.1875 236.410156 230.007813 236.535156 229.679688 C 236.664063 229.355469 236.644531 228.863281 236.644531 228.554688 C 236.644531 228.246094 236.664063 228.246094 236.882813 228.335938 C 237.101563 228.425781 236.988281 228.101563 237.191406 227.957031 C 237.390625 227.808594 237.191406 227.628906 237.425781 227.539063 C 237.664063 227.445313 237.773438 226.902344 238.082031 226.703125 C 238.390625 226.503906 238.300781 226.046875 238.246094 225.703125 C 238.1875 225.355469 237.863281 225.175781 237.535156 225.15625 C 237.210938 225.140625 236.84375 224.886719 236.589844 224.546875 C 236.335938 224.210938 235.628906 224.574219 235.355469 224.546875 C 235.082031 224.523438 234.992188 224.304688 234.773438 224.484375 C 234.554688 224.667969 234.394531 224.429688 234.300781 224.140625 C 234.210938 223.847656 233.867188 223.996094 233.574219 223.765625 C 233.285156 223.539063 233.246094 223.738281 233.011719 223.757813 C 232.777344 223.777344 232.683594 223.757813 232.503906 223.757813 C 232.320313 223.757813 232.121094 223.304688 232.15625 222.960938 C 232.246094 222.613281 231.8125 222.488281 231.8125 222.488281 C 231.8125 222.488281 231.632813 222.125 231.484375 221.652344 C 231.339844 221.179688 230.867188 221.378906 230.578125 221.105469 C 230.285156 220.832031 229.503906 220.996094 229.234375 220.980469 C 228.960938 220.960938 228.6875 220.761719 228.613281 220.46875 C 228.542969 220.179688 228.179688 219.960938 227.960938 219.933594 C 227.742188 219.902344 227.742188 219.871094 227.742188 219.632813 C 227.742188 219.398438 227.488281 219.433594 227.324219 219.363281 C 227.164063 219.289063 227.105469 219.308594 227.054688 219.105469 C 227 218.90625 226.816406 218.945313 226.578125 218.835938 C 226.34375 218.726563 226.308594 218.890625 226.269531 219.054688 C 226.234375 219.21875 225.945313 219.253906 225.746094 219.089844 C 225.546875 218.925781 225.4375 218.945313 225.328125 218.960938 C 225.21875 218.980469 224.816406 219.089844 224.765625 218.871094 C 224.710938 218.652344 224.453125 218.5625 224.054688 218.488281 C 223.65625 218.417969 223.765625 218.363281 223.765625 218.253906 C 223.765625 218.144531 223.492188 218.070313 223.238281 218.253906 C 222.984375 218.433594 222.839844 218.488281 222.710938 218.488281 C 222.585938 218.484375 222.457031 218.761719 222.257813 218.542969 C 222.058594 218.324219 222.347656 218.796875 221.90625 218.871094 C 221.46875 218.945313 221.289063 219.234375 221.289063 219.234375 L 221.289063 219.78125 C 221.289063 219.78125 221.359375 219.742188 221.289063 220.46875 C 221.222656 221.195313 221.003906 221.996094 220.605469 222.324219 C 220.203125 222.652344 220.203125 222.652344 220.203125 222.652344 Z M 220.203125 222.652344 " />
    <path style=" stroke:none;fill-rule:nonzero;fill:rgb(68.554688%,88.671875%,34.910583%);fill-opacity:1;" d="M 219.1875 213.421875 C 219.1875 213.421875 219.804688 213.09375 220.023438 213.238281 C 220.238281 213.382813 220.523438 213.203125 221.289063 213.675781 C 222.058594 214.148438 223.183594 214.65625 222.675781 214.691406 C 222.164063 214.730469 222.054688 214.691406 221.765625 214.691406 C 221.476563 214.691406 221.5625 214.472656 221.457031 214.367188 C 221.117188 214.023438 221.039063 214.054688 220.785156 213.972656 C 220.53125 213.894531 220.238281 213.585938 220.203125 213.800781 C 220.167969 214.019531 219.1875 213.421875 219.1875 213.421875 Z M 219.1875 213.421875 " />
    <path style=" stroke:none;fill-rule:nonzero;fill:rgb(68.554688%,88.671875%,34.910583%);fill-opacity:1;" d="M 223.109375 214.949219 C 223.109375 214.949219 223.402344 215.417969 223.109375 215.417969 C 222.820313 215.417969 222.527344 215.671875 222.527344 215.671875 C 222.527344 215.671875 223.363281 215.746094 223.582031 215.671875 C 223.800781 215.601563 223.984375 215.8125 224.347656 215.707031 C 224.710938 215.601563 225.253906 215.371094 224.816406 215.34375 C 224.382813 215.308594 223.753906 215.09375 223.753906 215.09375 C 223.753906 215.09375 223.328125 214.910156 223.109375 214.949219 Z M 223.109375 214.949219 " />
    <path style=" stroke:none;fill-rule:nonzero;fill:rgb(96.484375%,54.101563%,12.156677%);fill-opacity:1;" d="M 211.125 118.988281 C 211.125 149.101563 186.710938 173.515625 156.597656 173.515625 C 126.484375 173.515625 102.070313 149.101563 102.070313 118.988281 C 102.070313 88.871094 126.484375 64.460938 156.597656 64.460938 C 186.710938 64.460938 211.125 88.871094 211.125 118.988281 Z M 211.125 118.988281 " />
    <path style=" stroke:none;fill-rule:nonzero;fill:rgb(80.076599%,59.959412%,39.988708%);fill-opacity:1;" d="M 173.351563 186.59375 L 166.066406 172.1875 L 164.46875 178.0625 C 153.867188 170.550781 143.101563 162.546875 132.324219 154.128906 C 110.355469 136.960938 90.65625 119.871094 74.0625 103.875 L 70.382813 103.875 C 87.441406 120.46875 107.867188 138.257813 130.75 156.144531 C 141.519531 164.558594 152.273438 172.550781 162.871094 180.058594 L 156.144531 183.203125 Z M 173.351563 186.59375 " />
  </g>
</svg>