<?xml version="1.0" encoding="UTF-8" standalone="no"?>
<svg width="1e3" xmlns="http://www.w3.org/2000/svg" height="1e3">
 <g stroke-width=".5" fill-rule="evenodd">
  <path id="svg_2" fill="#aa8ab8" stroke="#aa8ab8" d="m695.2 347.2l-0.2 0.3-0.2 0.3-0.3 0.2-0.3 0.2-0.2 0.3-0.2 0.3-0.3 0.2-0.3 0.2-0.2 0.3-0.2 0.3-0.3 0.2-0.3 0.2-0.2 0.3-0.2 0.3-0.3 0.2-0.3 0.2-0.2 0.3-0.2 0.3c-0.20001 0.13333-0.39996 0.36667-0.59998 0.70001l-0.2 0.5-0.5 0.2c-0.33331 0.19998-0.5 0.39999-0.5 0.59998v0.20001l-1 0.2c-0.66669 0.19998-3 1.4-7 3.6-4 2.1333-9.2667 9.7-15.8 22.7-6.4667 13-13.133 24-20 33-6.8 9-10.533 13.5-11.2 13.5-0.66669 0-1.0666 0.33334-1.2 1-0.20001 0.66666-5.4667 5.8333-15.8 15.5s-22.067 19.233-35.2 28.7c-13.2 9.5333-26.733 17.867-40.6 25-13.8 7.2-27.267 13.4-40.4 18.6-13.2 5.1334-26.3 9.2-39.3 12.2s-22.5 5-28.5 6-17.833 1.8333-35.5 2.5c-17.667 0.66669-30.667 0.5-39-0.5-8.3333-1-14.5-2.1667-18.5-3.5s-8.6667-2.1667-14-2.5c-5.3333-0.33331-13.933 2.4-25.8 8.2-11.8 5.8666-19.8 9.0666-24 9.6l-6.2 0.7-1.5-0.5-1.5-0.5-0.2-0.3-0.3-0.2-0.3-0.2-0.2-0.3-1-0.3-1-0.2-0.2-0.5c-0.19998-0.33331-0.39999-0.5-0.59998-0.5h-0.20001l-0.5-0.2c-0.33334-0.20001-2.5-1.4667-6.5-3.8s-10.6-7.2667-19.8-14.8c-9.1333-7.4667-16.267-14.367-21.4-20.7-5.2-6.3333-8.1333-9.5-8.8-9.5-0.66667 0-2.6-2.5-5.8-7.5-3.1333-5-7.2-12.5-12.2-22.5s-9-20.833-12-32.5-4.6667-24.333-5-38c-0.33333-13.667-0.16667-23 0.5-28s2.5-12.667 5.5-23 7.2667-21.167 12.8-32.5c5.4667-11.333 8.5333-17 9.2-17 0.66667 0 2.4-2.1667 5.2-6.5 2.8667-4.3333 5.4-7.5 7.6-9.5 2.1333-2 4.8667-4.9333 8.2-8.8 3.3333-3.8 6.1667-6.9334 8.5-9.4 2.3333-2.5333 5.3333-5.0666 9-7.6 3.6667-2.4667 7-5.2 10-8.2s9.5667-6.7333 19.7-11.2c10.2-4.5333 20.4-8.4 30.6-11.6 10.133-3.1333 18.533-5.1333 25.2-6 6.6667-0.8 10-1.5333 10-2.2 0-0.66667 0.66666-1 2-1s2 0.33333 2 1 0.39999 1.3333 1.2 2c0.86667 0.66667 1.5333 1.4 2 2.2 0.53332 0.86667 3.3 1.0667 8.3 0.60001 5-0.53334 7-1.8 6-3.8l-1.5-3 2.5 0.2c1.6667 0.2 3.6667 0.3 6 0.3h3.5l0.2-0.3 0.3-0.2 0.3-7.5 0.2-7.5h4l0.2 1.5 0.3 1.5 0.3 0.2 0.2 0.3 1 0.5 1 0.5 0.2 0.3 0.3 0.2 0.3 0.2 0.2 0.3 0.2 0.3 0.3 0.2 0.3 0.2 0.2 0.3 0.2 0.3 0.3 0.2 0.3 0.2 0.2 0.3 1 0.3 1 0.2 0.2-1 0.3-1 0.5-1 0.5-1 3.5-15.5c2.3333-10.333 5.7333-20.233 10.2-29.7 4.5333-9.5333 10.2-18.733 17-27.6 6.8667-8.8 14.4-16.933 22.6-24.4 8.1333-7.5333 17.033-14.133 26.7-19.8 9.6667-5.6667 19-10.167 28-13.5 9-3.3333 18-5.8333 27-7.5s20.333-2.5 34-2.5 25.5 1 35.5 3 20.933 5.5667 32.8 10.7c11.8 5.2 21.933 10.733 30.4 16.6 8.5333 5.8 17.067 12.933 25.6 21.4 8.4667 8.5333 15.6 17.067 21.4 25.6 5.8666 8.4667 14.633 14.367 26.3 17.7 11.667 3.3333 22.5 7.6667 32.5 13s16.333 8.9 19 10.7c2.6667 1.8667 4 3.1333 4 3.8 0 0.66667 0.66669 1.1667 2 1.5 1.3333 0.33333 3.1667 1.7667 5.5 4.3 2.3333 2.4667 6.2333 7.1333 11.7 14 5.5333 6.8 9.4667 13.033 11.8 18.7 2.3333 5.6667 3.3333 10.5 3 14.5-0.33331 4-3.8333 9.6667-10.5 17s-11.767 13.267-15.3 17.8c-3.4667 4.4667-11.367 13.367-23.7 26.7s-23 23-32 29-16.767 10.9-23.3 14.7c-6.4667 3.8667-9.8 5.8667-10 6z"/>
  <path id="svg_3" fill="#8b649e" stroke="#8b649e" d="m806 177.8l-1-2.8 11.2 11.5c7.5333 7.6667 13.2 14.233 17 19.7 3.8666 5.5333 6.1333 8.4 6.8 8.6l1 0.2v-2l1.5-0.2 1.5-0.3 0.2-0.3 0.3-0.2 0.3 0.2 0.2 0.3 0.2 0.3 0.3 0.2 0.3 0.2 0.2 0.3 0.2 0.3 0.3 0.2 0.3-0.2 0.2-0.3 1-0.3 1-0.2v0.2c0 0.2 0.16669 0.40001 0.5 0.60001l0.5 0.2 4.2 8.5c2.8666 5.6667 6.1333 14 9.8 25s6.1667 20.333 7.5 28c1.3333 7.6667 1.8333 19 1.5 34-0.33331 15-1.6667 27.833-4 38.5s-5.5 20.833-9.5 30.5c-4 9.6667-6.3333 15.333-7 17-0.66669 1.6667 0.5 6.8333 3.5 15.5s5.3333 17.167 7 25.5c1.6667 8.3333 2.5 21 2.5 38s-1.1667 30.667-3.5 41-5.2667 19.767-8.8 28.3c-3.4667 8.4667-6.7 15.933-9.7 22.4-3 6.5333-4.9 9.9667-5.7 10.3-0.86664 0.33331-2.8 2.8333-5.8 7.5s-6.6 9.6-10.8 14.8c-4.1334 5.1334-9.5333 10.867-16.2 17.2-6.6667 6.3333-10.733 9.9334-12.2 10.8-1.5333 0.79999-2.4 1.5333-2.6 2.2-0.13336 0.66669-5.8667 4.4-17.2 11.2-11.333 6.8666-21.333 11.967-30 15.3-8.6667 3.3333-18.167 6.1667-28.5 8.5s-23.333 3.5-39 3.5-25.833-0.33331-30.5-1c-4.6667-0.66669-7.8333-1.1667-9.5-1.5l-2.5-0.5-0.2-0.3-0.3-0.2h-0.5l-0.2-0.5-0.3-0.5-0.3-0.2-0.2-0.3 0.2-0.3 0.3-0.2 0.5-1 0.5-1 0.3-0.2 0.2-0.3 1-0.5 1-0.5 1-0.5 1-0.5-1-0.5-1-0.5-1-0.5-1-0.5-2-0.5-2-0.5-1.5-0.5c-1-0.33331-2.3333-0.5-4-0.5s-3.5 0.43335-5.5 1.3c-2 0.79999-3.0666 1.5333-3.2 2.2-0.20001 0.66669-1.1333 1.5-2.8 2.5s-7.1667 4.5-16.5 10.5-19.233 11.067-29.7 15.2c-10.533 4.2-21.8 7.6333-33.8 10.3s-24.167 4.1667-36.5 4.5c-12.333 0.33331-25-0.66669-38-3s-25.333-5.8333-37-10.5-21-9.3333-28-14-13.233-9.4334-18.7-14.3c-5.5333-4.8-9.5333-8.2-12-10.2-2.5333-2-5.2-4.8333-8-8.5-2.8667-3.6667-7.1333-9.6667-12.8-18s-10.733-18-15.2-29l-6.8-16.5-0.2-0.5c-0.19998-0.33331-0.39999-0.5-0.59998-0.5h-0.20001l-0.2-0.5c-0.19998-0.33331-0.39999-0.5-0.59998-0.5h-0.20001l-0.2-0.5c-0.19998-0.33331-0.39999-0.56665-0.59998-0.70001l-0.2-0.3-0.2-0.3-0.3-0.2-0.3-0.2-0.2-0.3-0.2-0.3-0.3-0.2-0.3-0.2-0.2-0.3-1-0.5c-0.66666-0.33331-2.6667-1-6-2l-5-1.5-1-0.5-1-0.5-1-0.5-1-0.5 2.5-0.5c1.6667-0.33331 2.8333-0.66669 3.5-1l1-0.5-1-0.3c-0.66666-0.13336-1-0.53332-1-1.2 0-0.66669-0.60001-1.3333-1.8-2-1.1333-0.66669-1.4667-1.2667-1-1.8l0.8-0.7 1-0.5 1-0.5 0.2-0.3 0.3-0.2 0.3-2 0.2-2-2 0.2-2 0.3-1 0.5c-0.66666 0.33331-2.1667 0.73334-4.5 1.2-2.3333 0.53332-3.5 0.46668-3.5-0.20001s-3.6667-1.0666-11-1.2l-11-0.3-0.2-0.3-0.3-0.2-0.3-0.2-0.2-0.3-0.2-0.3-0.3-0.2-0.3-0.2-0.2-0.3-0.2-0.3-0.3-0.2-0.3-0.2-0.2-0.3-0.2-0.3-0.3-0.2-0.3-0.2-0.2-0.3-1-0.3-1-0.2v-2l1 0.2 1 0.3 0.2 0.3 0.3 0.2 0.3 0.2 0.2 0.3 0.2 0.3 0.3 0.2 0.3 0.2 0.2 0.3 1.5 0.5 1.5 0.5 6.2-0.7c4.2-0.53332 12.2-3.7333 24-9.6 11.867-5.8 20.467-8.5333 25.8-8.2 5.3333 0.33331 10 1.1667 14 2.5s10.167 2.5 18.5 3.5c8.3333 1 21.333 1.1667 39 0.5 17.667-0.66669 29.5-1.5 35.5-2.5s15.5-3 28.5-6 26.1-7.0666 39.3-12.2c13.133-5.2 26.6-11.4 40.4-18.6 13.867-7.1333 27.4-15.467 40.6-25 13.133-9.4667 24.867-19.033 35.2-28.7 10.333-9.6667 15.6-14.833 15.8-15.5 0.13336-0.66666 0.53332-1 1.2-1 0.66669 0 4.4-4.5 11.2-13.5 6.8666-9 13.533-20 20-33 6.5333-13 11.8-20.567 15.8-22.7 4-2.2 6.3333-3.4 7-3.6l1-0.2h0.20001c0.20001 0 0.39996-0.16666 0.59998-0.5l0.2-0.5 1-0.2 1-0.3 0.2-0.3 0.3-0.2 0.3-0.2 0.2-0.3 1-0.5 1-0.5 6-2.5c4-1.6667 12.333-5.5 25-11.5s26.167-12.333 40.5-19c14.333-6.6667 25.5-12 33.5-16s13.333-6.3333 16-7c2.6667-0.66666 6.6-2.5667 11.8-5.7 5.1334-3.2 8.3667-5.8 9.7-7.8s1.8333-6.1667 1.5-12.5c-0.33331-6.3333-2.4-16-6.2-29-3.8666-13-6.1333-19.5-6.8-19.5-0.66669 0-1.0666-1.1667-1.2-3.5-0.20001-2.3333-1.3-5.3333-3.3-9s-3.1667-5.8333-3.5-6.5l-0.5-1-0.3-0.2-0.2-0.3-0.2-0.3-0.3-0.2-0.3-0.2-0.2-0.3-0.2-0.3-0.3-0.2-0.5-1c-0.33331-0.66667-0.93335-1.8333-1.8-3.5-0.79999-1.6667-0.8667-2.5-0.20001-2.5s1.0666 0.33333 1.2 1c0.20001 0.66667 0.46668 0.83333 0.79999 0.5s-0.93335-2.4333-3.8-6.3c-2.8-3.8-4.5333-6.6-5.2-8.4zm11.8 17.4l1.2 0.3 0.2 0.3 0.3 0.2v0.5c0 0.33333-0.099976 0.56667-0.29999 0.7-0.13336 0.2-0.60004-0.13333-1.4-1-0.86664-0.8-0.86664-1.1333 0-1zm1.4 4.6c-0.13336-0.2-0.13336-0.40001 0-0.60001 0.20001-0.13333 0.29999-0.033325 0.29999 0.3v0.5l-0.3-0.2zm-526 351.4c0.19998-0.13336 0.39999-0.13336 0.59998 0 0.13333 0.20001 0.033356 0.29999-0.29999 0.29999-0.33334 0-0.43332-0.099976-0.29999-0.29999z"/>
  <path id="svg_4" fill="#8c659f" stroke="#8c659f" d="m428.2 735l-4.2-4 6 1.8c4 1.1334 10.5 2.0333 19.5 2.7 9 0.66669 16.667 2.3333 23 5 6.3333 2.6667 11.567 5.5666 15.7 8.7 4.2 3.2 6.5333 5.4667 7 6.8 0.53332 1.3333 1.1333 2 1.8 2 0.66666 0 2.2667 2.1667 4.8 6.5 2.4667 4.3333 4.5334 9 6.2 14 1.6667 5 2.5 11.667 2.5 20 0 8.3333-0.66666 14.833-2 19.5-1.3333 4.6667-3.2333 9.4-5.7 14.2-2.5333 4.8666-3.8667 7.4-4 7.6l-0.3 0.2-0.3 0.2-0.2 0.3-1 0.3-1 0.2-0.2 1-0.3 1h-0.5l-0.2-0.5-0.3-0.5-0.3-0.2c-0.13333-0.20001-0.20001-1.0666-0.20001-2.6 0-1.4667-0.66666-2.2-2-2.2h-2l-0.2 1.5c-0.19998 1-2.4 2.7667-6.6 5.3-4.1333 2.4667-6.4667 4.1334-7 5-0.46668 0.79999-1.8 1.5333-4 2.2-2.1333 0.66669-3.2667 1.3333-3.4 2-0.19998 0.66669-1.7333 1.4-4.6 2.2-2.8 0.86664-8.2 1.4667-16.2 1.8-8 0.33331-13.667 0-17-1-3.3333-1-8.3333-3.4-15-7.2-6.6667-3.8666-10.6-6.6333-11.8-8.3-1.1333-1.6667-3.2-5.1667-6.2-10.5s-5.1667-10.333-6.5-15c-1.3333-4.6667-1.6667-10.667-1-18 0.66666-7.3333 2.5-14 5.5-20s7-11.5 12-16.5 9.9333-8.8333 14.8-11.5c4.8-2.6667 7.3667-4.4 7.7-5.2l0.5-1.3 1-0.5 1-0.5 1-0.5 1-0.5-1.5-0.5c-1-0.33331-1.4333-0.59998-1.3-0.79999 0.19998-0.13336-1.1333-1.5333-4-4.2zm67.8 102h1v2h-1c-0.66666 0-1-0.33331-1-1s0.33334-1 1-1z"/>
  <path id="svg_5" fill="#8e67a0" stroke="#8e67a0" d="m804.8 174.5l0.2 0.5 1 2.8c0.66669 1.8 2.9334 5.1333 6.8 10 3.8 4.8 5.8 7.2667 6 7.4l0.2 0.3 0.2 0.3 0.3 0.2 0.3 0.2 0.2 0.3 0.2 0.3 0.3 0.2v2l-0.3 0.2-0.2 0.3-0.2 0.3-0.3 0.2-0.5-1c-0.33331-0.66667-1.0666-1.0667-2.2-1.2l-1.8-0.3 0.2 0.3 0.3 0.2 0.3 0.2 0.2 0.3 0.2 0.3 0.3 0.2 0.3 0.2 0.2 0.3 0.2 0.3 0.3 0.2 0.5 1c0.33331 0.66667 1.6667 3.1667 4 7.5s5.6667 13.833 10 28.5 6.6667 25.167 7 31.5c0.33331 6.3333-0.16669 10.5-1.5 12.5s-4.5666 4.6-9.7 7.8c-5.2 3.1333-9.1333 5.0334-11.8 5.7-2.6667 0.66666-8 3-16 7s-19.167 9.3333-33.5 16-27.833 13-40.5 19-21 9.8333-25 11.5l-6 2.5-1 0.5-1 0.5-0.2 0.3-0.3 0.2-0.3 0.2-0.2 0.3-0.2 0.3-0.3 0.2-0.3 0.2-0.2 0.3-1 0.3-1 0.2v-2l1-0.2 1-0.3 0.2-0.3 0.3-0.2 0.3-0.2 0.2-0.3 0.2-0.3 0.3-0.2 0.3-0.2 0.2-0.3 0.2-0.3 0.3-0.2 0.3-0.2 0.2-0.3 0.2-0.3 0.3-0.2 0.3-0.2 0.2-0.3 0.2-0.3c0.20001-0.13333 3.5333-2.1333 10-6 6.5333-3.8 14.3-8.7 23.3-14.7s19.667-15.667 32-29 20.233-22.233 23.7-26.7c3.5333-4.5333 8.6333-10.467 15.3-17.8 6.6667-7.3333 10.167-13 10.5-17 0.33331-4-0.66669-8.8333-3-14.5s-6.2667-11.9-11.8-18.7c-5.4667-6.8667-9.3667-11.533-11.7-14-2.3333-2.5333-4.1667-3.9667-5.5-4.3-1.3333-0.33333-2-0.83333-2-1.5s-1.3333-1.9333-4-3.8c-2.6667-1.8-9-5.3667-19-10.7s-20.833-9.6667-32.5-13-20.433-9.2333-26.3-17.7c-5.8-8.5333-12.933-17.067-21.4-25.6-8.5333-8.4667-17.067-15.6-25.6-21.4-8.4667-5.8667-18.6-11.4-30.4-16.6-11.867-5.1333-22.8-8.7-32.8-10.7s-21.833-3-35.5-3-25 0.83333-34 2.5-18 4.1667-27 7.5-18.333 7.8333-28 13.5c-9.6667 5.6667-18.567 12.267-26.7 19.8-8.2 7.4667-15.733 15.6-22.6 24.4-6.8 8.8667-12.467 18.067-17 27.6-4.4667 9.4667-7.8667 19.367-10.2 29.7l-3.5 15.5-0.5 1-0.5 1-0.3 1-0.2 1-1-0.2-1-0.3-0.2-0.3-0.3-0.2-0.3-0.2-0.2-0.3-0.2-0.3-0.3-0.2-0.3-0.2-0.2-0.3-0.2-0.3-0.3-0.2-0.3-0.2-0.2-0.3-1-0.5-1-0.5-0.2-0.3-0.3-0.2-0.3-1.5-0.2-1.5h-4.2c-0.19998 0-0.19998-3.6667 0-11l0.2-11-0.2-4.5c-0.19998-3-0.46664-5.6667-0.79999-8l-0.5-3.5v-3l0.5-1 0.5-1 0.7 2.5c0.53332 1.6667 1.1333 2.5667 1.8 2.7l1 0.3 1 0.3 1 0.2 1.8-4.5c1.1333-3 4.0334-9.3333 8.7-19 4.6667-9.6667 9.1-17.567 13.3-23.7 4.1333-6.2 6.3667-9.7333 6.7-10.6 0.33334-0.8 1.1-1.7 2.3-2.7 1.1333-1 3.2667-3.2333 6.4-6.7 3.2-3.5333 4.9666-5.7333 5.3-6.6 0.33334-0.8 2.5-2.8 6.5-6 4-3.1333 6.3333-4.8 7-5 0.66666-0.13332 1.8333-1.1333 3.5-3 1.6667-1.8 8.3333-6.2 20-13.2s17.833-10.6 18.5-10.8l1-0.2h0.20001c0.19998 0 0.39999-0.16667 0.59998-0.5l0.2-0.5 6.8-2.5c4.4667-1.6667 12.467-3.7667 24-6.3 11.467-2.4667 25.367-3.7 41.7-3.7s30.167 1.1667 41.5 3.5 22 5.6667 32 10 18.6 8.7333 25.8 13.2c7.1334 4.5333 14.2 9.6333 21.2 15.3s10.6 8.8333 10.8 9.5c0.13336 0.66666 1.2667 1.8333 3.4 3.5 2.2 1.6667 3.4 2.8333 3.6 3.5 0.13336 0.66666 0.60004 1.1667 1.4 1.5 0.86664 0.33334 1.4 0.83334 1.6 1.5 0.13336 0.66666 1.2667 2 3.4 4 2.2 2 6.5333 7.6 13 16.8 6.5333 9.1333 18.133 16.367 34.8 21.7 16.667 5.3333 29.4 10.567 38.2 15.7 8.8666 5.2 15.8 9.8 20.8 13.8s7.6 6.1667 7.8 6.5zm8 18.5c-0.53332-1.3333-0.39996-1.8333 0.40002-1.5 0.86664 0.33333 1.1333 1 0.79999 2s-0.73334 0.83333-1.2-0.5z"/>
  <path id="svg_6" fill="#7f5595" stroke="#7f5595" d="m361 170.5l0.5 2.5 0.3 0.2 0.2 0.3 0.2 0.3 0.3 0.2 0.3-0.2 0.2-0.3 0.2-0.3 0.3-0.2 0.3 0.2 0.2 0.3 0.2 0.3 0.3 0.2 0.3 0.2 0.2 0.3 0.5 0.3 0.5 0.2 1 5.5c0.66666 3.6667 0.66666 5.5 0 5.5s-1.0667 1.8333-1.2 5.5c-0.19998 3.6667-0.19998 5.5 0 5.5h0.20001l-0.2 7.5-0.3 7.5-0.3 0.2-0.2 0.3h-3.5c-2.3333 0-4.3333-0.10001-6-0.3l-2.5-0.2 1.5 3c1 2-1 3.2667-6 3.8-5 0.46666-7.7667 0.26666-8.3-0.60001-0.46668-0.8-1.1333-1.5333-2-2.2-0.80002-0.66667-1.2-1.3333-1.2-2 0-0.66667-0.66666-1-2-1s-2 0.33333-2 1-3.3333 1.4-10 2.2c-6.6667 0.86667-15.067 2.8667-25.2 6-10.2 3.2-20.4 7.0667-30.6 11.6-10.133 4.4667-16.7 8.2-19.7 11.2s-6.3333 5.7333-10 8.2c-3.6667 2.5333-6.6667 5.0667-9 7.6-2.3333 2.4667-5.1667 5.6-8.5 9.4-3.3333 3.8667-6.0667 6.8-8.2 8.8-2.2 2-4.7333 5.1667-7.6 9.5-2.8 4.3333-4.5333 6.5-5.2 6.5-0.66667 0-3.7333 5.6667-9.2 17-5.5333 11.333-9.8 22.167-12.8 32.5s-4.8333 18-5.5 23c-0.66667 5-0.83333 14.333-0.5 28s2 26.333 5 38 7 22.5 12 32.5 9.0667 17.5 12.2 22.5c3.2 5 5.1333 7.5 5.8 7.5 0.66667 0 3.6 3.1667 8.8 9.5 5.1333 6.3333 12.267 13.233 21.4 20.7 9.2 7.5333 15.8 12.467 19.8 14.8 4 2.3333 6.1667 3.6 6.5 3.8l0.5 0.2v0.20001c0 0.20001 0.16666 0.39996 0.5 0.59998l0.5 0.2 0.2 0.5c0.19998 0.33331 0.39999 0.56665 0.59998 0.70001l0.2 0.3 0.2 0.3 0.3 0.2 0.3 0.2 0.2 0.3 0.2 0.3 0.3 0.2 0.3 0.2 0.2 0.3 0.2 0.3 0.3 0.2 0.3 0.2 0.2 0.3 0.2 0.3 0.3 0.2 0.3 0.2 0.2 0.3 12.2 0.3c8.2 0.13336 11.867 0.46668 11 1-0.80002 0.46668-0.033356 0.53332 2.3 0.20001 2.3333-0.33331 3.8333-0.66669 4.5-1l1-0.5 2-0.3 2-0.2-0.2 2-0.3 2-0.3 0.2-0.2 0.3-1 0.5-1 0.5-0.8 0.7c-0.46668 0.53332-0.13333 1.1333 1 1.8 1.2 0.66669 1.8 1.3333 1.8 2 0 0.66669 0.33334 1.0666 1 1.2l1 0.3-1 0.5c-0.66666 0.33331-1.8333 0.66669-3.5 1l-2.5 0.5 1 0.5 1 0.5 1 0.5 1 0.5 5 1.5c3.3333 1 5.3333 1.6667 6 2l1 0.5 0.2 0.3 0.3 0.2 0.3 0.2 0.2 0.3 0.2 0.3 0.3 0.2 0.3 0.2 0.2 0.3 1 0.5 1 0.5 0.2 0.3 0.3 0.2 0.3 1 0.2 1-1-0.2-1-0.3-0.2-0.3-0.3-0.2-0.3-0.2-0.2-0.3-1-0.5-1-0.5-1-0.5-1-0.5-5-0.5c-3.3333-0.33331-11-2.1667-23-5.5s-23.667-7.8333-35-13.5-22.167-12.4-32.5-20.2l-15.5-11.8-0.2-0.5c-0.2-0.33331-0.40001-0.5-0.60001-0.5h-0.2l-0.2-0.5-0.3-0.5-0.3-0.2-0.2-0.3-0.2-0.3-0.3-0.2-0.3-0.2-0.2-0.3-0.2-0.3-0.3-0.2-0.3-0.2-0.2-0.3-0.2-0.3-0.3-0.2-0.3-0.2-0.2-0.3-0.2-0.3-0.3-0.2-0.3-0.2-0.2-0.3-0.2-0.3c-0.2-0.13336-1.6333-1.7-4.3-4.7s-6.8333-8.6667-12.5-17-11.167-18.333-16.5-30c-5.3333-11.667-8.8333-22.333-10.5-32-1.6667-9.6667-2.6667-21-3-34-0.33333-13 0.16667-24.5 1.5-34.5s3.5-20.5 6.5-31.5 6.6667-21 11-30 10.267-18.5 17.8-28.5l11.2-15 0.5-0.2c0.33333-0.19998 0.5-0.39999 0.5-0.59998v-0.20001l15.5-12.8c10.333-8.4667 18.5-14.7 24.5-18.7s14.167-8.3333 24.5-13 21.567-8.5667 33.7-11.7c12.2-3.2 20.067-5.2 23.6-6 3.4667-0.86667 10.533-1.8667 21.2-3 10.667-1.2 16-2.3 16-3.3s-0.26666-1.6667-0.79999-2c-0.46668-0.33333-0.36667-0.83333 0.29999-1.5s1.1-2.8333 1.3-6.5l0.2-5.5 1.5-2.2c1-1.5333 1.5667-2.2 1.7-2 0.19998 0.13333 0.46664 1.0333 0.79999 2.7z"/>
  <path id="svg_7" fill="#74488b" stroke="#74488b" d="m847.2 209.8l0.3 0.2 0.3 0.2 0.2 0.3 0.2 0.3 0.3 0.2 0.3 0.2 0.2 0.3 0.2 0.3 0.3 0.2 0.3 1 0.2 1-1-0.2-1-0.3-0.2-0.3-0.3-0.2-0.3 0.2-0.2 0.3-0.2 0.3-0.3 0.2-0.3-0.2-0.2-0.3-0.2-0.3-0.3-0.2-0.3-0.2-0.2-0.3-0.2-0.3-0.3-0.2-0.3 0.2-0.2 0.3-1.5 0.3-1.5 0.2v2l-1-0.2c-0.66669-0.2-2.9334-3.0667-6.8-8.6-3.8-5.4667-9.4667-12.033-17-19.7l-11.2-11.5-0.2-0.5c-0.20001-0.33333-2.8-2.5-7.8-6.5s-11.933-8.6-20.8-13.8c-8.8-5.1333-21.533-10.367-38.2-15.7-16.667-5.3333-28.267-12.567-34.8-21.7-6.4667-9.2-10.8-14.8-13-16.8-2.1334-2-3.2667-3.3333-3.4-4-0.20001-0.66666-0.73334-1.1667-1.6-1.5-0.79999-0.33334-1.2667-0.83334-1.4-1.5-0.20001-0.66666-1.4-1.8333-3.6-3.5-2.1334-1.6667-3.2667-2.8333-3.4-3.5-0.20001-0.66666-3.8-3.8333-10.8-9.5s-14.067-10.767-21.2-15.3c-7.2-4.4667-15.8-8.8667-25.8-13.2s-20.667-7.6667-32-10-25.167-3.5-41.5-3.5-30.233 1.2333-41.7 3.7c-11.533 2.5333-19.733 4.8-24.6 6.8l-7.2 3v-1c0-0.66667 0.5-1.0667 1.5-1.2 1-0.2 0.33334-0.4-2-0.6-2.3333-0.13333-3.5 0.13333-3.5 0.8s-3.5 1.4-10.5 2.2c-7 0.86667-10.233 1.0667-9.7 0.6 0.46668-0.53333 0.13333-1.1333-1-1.8-1.2-0.66667-2.0666-1.8333-2.6-3.5-0.46668-1.6667-1.9334-2.9-4.4-3.7l-3.8-1.3-1.5-0.3-1.5-0.2v-2l1-0.2 1-0.3 0.2-0.3 0.3-0.2 0.3-0.2 0.2-0.3 0.2-0.3 0.3-0.2 0.3-0.2 0.2-0.3 0.2-0.3 0.3-0.2 0.3-0.2 0.2-0.3 0.2-0.3 0.3-0.2 0.3-0.2 0.2-0.3 0.2-0.3c0.19998-0.13333 0.39999-0.36667 0.59998-0.7l0.2-0.5 13.5-2.8c9-1.8 30.833-2.7 65.5-2.7s58 1.1667 70 3.5 22.933 5.6 32.8 9.8c9.8 4.1333 17.7 7.8667 23.7 11.2s12.833 7.8333 20.5 13.5c7.6667 5.6667 14.267 11 19.8 16 5.4667 5 10.133 10 14 15 3.8 5 7.2 9.6667 10.2 14s5.6 7.9 7.8 10.7c2.1334 2.8667 9.5333 6.1334 22.2 9.8 12.667 3.6667 23.5 7.8333 32.5 12.5s16.1 8.5667 21.3 11.7c5.1334 3.2 7.8 5.1333 8 5.8 0.13336 0.66667 2.9334 3.3333 8.4 8 5.5333 4.6667 11.8 11 18.8 19s10.733 12.6 11.2 13.8c0.53332 1.1333 1.1333 1.8 1.8 2 0.66669 0.13333 1.6667 1.6 3 4.4 1.3333 2.8667 2.0666 4.4 2.2 4.6z"/>
  <path id="svg_8" fill="#754a8c" stroke="#754a8c" d="m196 256h1l-10.8 14c-7.1333 9.3333-12.867 18.333-17.2 27-4.3333 8.6667-8.3333 19.167-12 31.5s-6.1667 23.5-7.5 33.5-1.8333 21.5-1.5 34.5c0.33333 13 1.3333 24.333 3 34 1.6667 9.6667 5.1667 20.333 10.5 32s10.833 21.667 16.5 30c5.6667 8.3333 9.8333 14 12.5 17s4.1 4.5666 4.3 4.7l0.2 0.3 0.2 0.3 0.3 0.2 0.3 0.2 0.2 0.3 0.2 0.3 0.3 0.2 0.3 0.2 0.2 0.3 0.2 0.3 0.3 0.2 0.3 0.2 0.2 0.3 0.2 0.3 0.3 0.2 0.3 0.2 0.2 0.3 0.2 0.3 0.3 0.2 0.3 0.5 0.2 0.5v0.5l0.5 0.3 0.5 0.2v0.5h-2l-0.2-0.3-0.3-0.2-0.3-0.2-0.2-0.3-0.2-0.3-0.3-0.2-0.3-0.2-0.2-0.3-0.2-0.3-0.3-0.2-0.3-0.2-0.2-0.3-0.2-0.3-0.3-0.2-0.3-0.2-0.2-0.3-0.2-0.3-0.3-0.2-0.3-0.2c-0.13333-0.20001-0.59999-0.73334-1.4-1.6l-1.3-1.2-0.3-0.2-0.2-0.3-0.2-0.3-0.3-0.2-0.3-0.2-0.2-0.3-2-0.3-2-0.2v2h4l-0.2 1.5c-0.2 1-0.2 1.5666 0 1.7l0.2 0.3-0.2 0.3-0.3 0.2-0.3 0.2-0.2 0.3 1 0.5 1 0.5 0.2 0.3 0.3 0.2 0.3 1 0.2 1-1-0.2-1-0.3-0.2-0.3-0.3-0.2-0.3-0.2-0.2-0.3-0.2-0.3-0.3-0.2-0.3-0.2-0.2-0.3-0.2-0.3-0.3-0.2-0.3-0.2-0.2-0.3-0.2-0.3-0.3-0.2-0.3-0.2-0.2-0.3-0.2-0.3c-0.2-0.13336-1.7333-1.3667-4.6-3.7-2.8-2.3333-4.2667-3.8333-4.4-4.5-0.2-0.66666-0.73334-1.1667-1.6-1.5-0.8-0.33334-1.2-0.83334-1.2-1.5s-1.1667-1.7333-3.5-3.2c-2.3333-1.5333-5.5-2.1333-9.5-1.8l-6 0.5-1.5 0.5-1.5 0.5-0.2 0.3-0.3 0.2-0.5 1-0.5 1-0.3 0.2-0.2 0.3 0.2 0.3 0.3 0.2 0.3 1 0.2 1-1 0.2-1 0.3 0.2 0.3 0.3 0.2 0.5 1 0.5 1 0.3 0.2 0.2 0.3 1 1.7c0.66667 1.2 1.3333 1.8 2 1.8 0.66667 0 1.1667 0.40002 1.5 1.2 0.33333 0.86664 3.5667 3.4 9.7 7.6 6.2 4.1334 9.7333 7.2 10.6 9.2 0.8 2 1.6 3.1667 2.4 3.5 0.86667 0.33331 1.4667 1 1.8 2 0.33333 1 0.60001 1.5666 0.8 1.7l0.2 0.3 0.2 0.3 0.3 0.2 0.3 0.2 0.2 0.3 1 0.5 1 0.5 0.2 0.3 0.3 0.2 0.3 0.2 0.2 0.3 0.2 0.3 0.3 0.2 0.3 0.2 0.2 0.3 0.2 0.3 0.3 0.2 0.3 0.2 0.2 0.3-2.5 0.3-2.5 0.2-1-0.2-1-0.3-1-0.5-1-0.5-0.2-0.3-0.3-0.2-0.3-0.2c-0.13333-0.20001-2.3667-1.8-6.7-4.8s-7-5.0666-8-6.2c-1-1.2-2.1667-2.0666-3.5-2.6-1.3333-0.46668-5-3.5333-11-9.2s-11.833-11.833-17.5-18.5c-5.6667-6.6667-9.9-12.1-12.7-16.3-2.8667-4.1333-5.0667-7.7-6.6-10.7-1.4667-3-2.5333-4.5667-3.2-4.7-0.66666-0.19998-1.6667-1.8-3-4.8s-3.6-8.4-6.8-16.2c-3.1333-7.8667-4.8666-12.3-5.2-13.3-0.33334-1-1.6667-6.5-4-16.5s-3.6667-22.667-4-38c-0.33334-15.333 0.5-28.5 2.5-39.5s5.3333-22.167 10-33.5l7-17 0.3-0.2 0.2-0.3 0.2-0.3 0.3-0.2 0.5-1 0.5-1 0.5-1.5 0.5-1.5 0.3-0.2 0.2-0.3 0.2-0.3 0.3-0.2h0.5l-1.2 10.5c-0.86668 7-1.0667 10.767-0.60001 11.3 0.53333 0.46668 0.96666 1.1333 1.3 2 0.33334 0.80002 2.1667 1.8 5.5 3 3.3333 1.1333 9.1667 1.5334 17.5 1.2 8.3333-0.33334 13.667-1.0667 16-2.2 2.3333-1.2 7-7.3 14-18.3s11.767-17.5 14.3-19.5c2.4667-2 3.8-3.3333 4-4 0.13333-0.66666 0.53332-1 1.2-1 0.66667 0 1-0.33334 1-1s0.60001-1.1667 1.8-1.5c1.1333-0.33334 2.4667-1.7667 4-4.3 1.4667-2.4667 2.5333-3.8 3.2-4 0.66667-0.13333 1.1667-0.46668 1.5-1 0.33333-0.46668 0.5-0.36668 0.5 0.29999 0 0.66666-0.16667 1.1667-0.5 1.5-0.33333 0.33334-0.10001 0.39999 0.7 0.20001 0.86667-0.13333 1.4-0.53336 1.6-1.2 0.13333-0.66666 0.53332-1 1.2-1zm-88.8 36.2c0.2-0.13333 0.4-0.13333 0.60001 0 0.13332 0.19998 0.03334 0.29999-0.3 0.29999s-0.43333-0.10001-0.3-0.29999zm41 214c0.2-0.13333 0.40001-0.13333 0.60001 0 0.13333 0.19998 0.033325 0.29999-0.3 0.29999-0.33333 0-0.43333-0.10001-0.3-0.29999zm36.8 2.8c0-0.66666 0.33333-1 1-1s1 0.33334 1 1-0.33333 1-1 1-1-0.33334-1-1zm2.2 6.2c0.2-0.13336 0.40001-0.13336 0.60001 0 0.13333 0.20001 0.033325 0.29999-0.3 0.29999-0.33333 0-0.43333-0.099976-0.3-0.29999z"/>
  <path id="svg_9" fill="#6f4188" stroke="#6f4188" d="m185.8 517.2l0.2 0.3 0.2 0.3 0.3 0.2 0.3 0.2 0.2 0.3 0.2 0.3 0.3 0.2 0.3 0.2 0.2 0.3 0.2 0.3 0.3 0.2 0.5-1 0.5-1 0.3-0.2 0.2-0.3-1-0.5c-0.66667-0.33331-1.0667-0.59998-1.2-0.79999-0.2-0.13336-0.066666-0.46668 0.39999-1 0.53334-0.46668 0.3-0.79999-0.7-1l-1.5-0.2 0.2-1c0.2-0.66669 0.066666-1.6667-0.39999-3-0.53334-1.3333 0.033325-1.2667 1.7 0.20001l2.5 2.3 0.2 0.3 0.3 0.2 0.3 0.2 0.2 0.3 0.2 0.3 0.3 0.2 1.3 1.2c0.8 0.86664 1.2667 1.4 1.4 1.6l0.3 0.2 0.3 0.2 0.2 0.3 0.2 0.3 0.3 0.2 0.3 0.2 0.2 0.3 0.2 0.3 0.3 0.2 0.3 0.2 0.2 0.3 0.2 0.3 0.3 0.2 0.3 0.2 0.2 0.3 0.2 0.3 0.3 0.2 0.3 0.2 0.2 0.3 0.2 0.3c0.2 0.13336 0.40001-0.1333 0.60001-0.79999l0.2-1h1c0.66667 0 2.1667 1.2667 4.5 3.8 2.3333 2.4667 8.1667 7.0333 17.5 13.7s18.833 12.333 28.5 17c9.6667 4.6667 20.5 8.6667 32.5 12s19.667 5.1667 23 5.5l5 0.5 1 0.5 1 0.5 1.5 0.3 1.5 0.2v0.20001c0 0.20001 0.16666 0.39996 0.5 0.59998l0.5 0.2v0.20001c0 0.20001 0.16666 0.39996 0.5 0.59998l0.5 0.2 6.8 16.5c4.4667 11 9.5334 20.667 15.2 29 5.6667 8.3333 9.9333 14.333 12.8 18 2.8 3.6667 5.4667 6.5 8 8.5 2.4667 2 6.4667 5.4 12 10.2 5.4667 4.8666 11.7 9.6333 18.7 14.3s16.333 9.3333 28 14 24 8.1667 37 10.5 25.667 3.3333 38 3c12.333-0.33331 24.5-1.8333 36.5-4.5s23.267-6.1 33.8-10.3c10.467-4.1334 20.367-9.2 29.7-15.2 9.3333-6 14.833-9.5 16.5-10.5 1.6667-1 2.6-1.8333 2.8-2.5 0.13336-0.66669 1.2-1.4 3.2-2.2 2-0.86664 3.8333-1.3 5.5-1.3s3 0.16669 4 0.5l1.5 0.5 2 0.5 2 0.5 1 0.5 1 0.5 1 0.5 1 0.5-1 0.5-1 0.5-1 0.5-1 0.5-0.2 0.3-0.3 0.2-0.5 1-0.5 1-0.3 0.2-0.2 0.3 0.2 0.3 0.3 0.2 0.3 0.5 0.2 0.5-1-0.2c-0.66669-0.20001-2.3333-0.29999-5-0.29999s-6 1.5-10 4.5-9.1667 6.5-15.5 10.5-12.833 7.6667-19.5 11c-6.6667 3.3333-13.667 6.3333-21 9-7.3333 2.6667-16.167 5.1667-26.5 7.5s-23.167 3.6667-38.5 4c-15.333 0.33331-33.5-1.1667-54.5-4.5s-37-6.6667-48-10-20.5-6.8333-28.5-10.5-15.333-7.8333-22-12.5c-6.6667-4.6667-11.5-8.1667-14.5-10.5s-5.6667-4.7333-8-7.2c-2.3333-2.5333-3.8333-3.8666-4.5-4-0.66666-0.20001-1.6667-1.2-3-3-1.3333-1.8666-3.1667-3.6333-5.5-5.3s-4.5-4-6.5-7-3.3333-4.5-4-4.5c-0.66666 0-3-3.2667-7-9.8-4-6.4667-8.8333-15.6-14.5-27.4-5.6667-11.867-13.167-18.733-22.5-20.6-9.3333-1.8-18.833-4.3667-28.5-7.7-9.6667-3.3333-19-7.4334-28-12.3l-13.5-7.2 2.5-0.2 2.5-0.3-0.2-0.3-0.3-0.2-0.3-0.2-0.2-0.3-0.2-0.3-0.3-0.2-0.3-0.2-0.2-0.3-0.2-0.3-0.3-0.2-0.3-0.2-0.2-0.3-1-0.5-1-0.5-0.2-0.3-0.3-0.2-0.3-0.2-0.2-0.3-0.2-0.3c-0.2-0.13336-0.46668-0.70001-0.8-1.7-0.33333-1-0.93333-1.6667-1.8-2-0.8-0.33331-1.6-1.5-2.4-3.5-0.86667-2-4.4-5.0666-10.6-9.2-6.1333-4.2-9.3667-6.7333-9.7-7.6-0.33333-0.79999-0.83333-1.2-1.5-1.2s-1.3333-0.59998-2-1.8l-1-1.7-0.2-0.3-0.3-0.2-0.5-1-0.5-1-0.3-0.2-0.2-0.3-0.2-0.3-0.3-0.2-0.3-1-0.2-1 1-0.2 1-0.3 0.2-0.3 0.3-0.2 0.5-1 0.5-1 0.3-0.2 0.2-0.3 1.5-0.5 1.5-0.5 6-0.5c4-0.33334 7.1667 0.26666 9.5 1.8 2.3333 1.4667 3.5 2.5334 3.5 3.2 0 0.66666 0.39999 1.1667 1.2 1.5 0.86667 0.33334 1.4 0.83334 1.6 1.5 0.13333 0.66666 1.6 2.1667 4.4 4.5 2.8667 2.3333 4.4 3.5666 4.6 3.7zm-35.6-10c0.2-0.13333 0.40001-0.13333 0.60001 0 0.13333 0.19998 0.033325 0.29999-0.3 0.29999-0.33333 0-0.43333-0.10001-0.3-0.29999zm41 14c0.2-0.13336 0.40001-0.13336 0.60001 0 0.13333 0.20001 0.033325 0.29999-0.3 0.29999-0.33333 0-0.43333-0.099976-0.3-0.29999z"/>
  <path id="svg_10" fill="#72458a" stroke="#72458a" d="m410 731.2l14-0.2 4.2 4c2.8667 2.6667 4.2 4.0666 4 4.2-0.13333 0.20001 0.29999 0.46668 1.3 0.79999l1.5 0.5-1 0.5-1 0.5-1 0.5-1 0.5-0.5 1.3c-0.33334 0.79999-2.9 2.5333-7.7 5.2-4.8667 2.6667-9.8 6.5-14.8 11.5s-9 10.5-12 16.5-4.8333 12.667-5.5 20c-0.66666 7.3333-0.33334 13.333 1 18 1.3333 4.6667 3.5 9.6667 6.5 15s5.0667 8.8333 6.2 10.5c1.2 1.6667 5.1333 4.4334 11.8 8.3 6.6667 3.8 11.667 6.2 15 7.2 3.3333 1 9 1.3333 17 1 8-0.33331 13.4-0.93335 16.2-1.8 2.8667-0.79999 4.4-1.5333 4.6-2.2 0.13333-0.66669 1.2667-1.3333 3.4-2 2.2-0.66669 3.5333-1.4 4-2.2 0.53332-0.86664 2.8667-2.5333 7-5 4.2-2.5333 6.4-4.3 6.6-5.3l0.2-1.5 2 0.2 2 0.3h1l1-0.3 1-0.2v2l-1 0.2-1 0.3-0.2 0.3-0.3 0.2v2l0.3 0.5 0.2 0.5v0.5l-0.2 0.3-0.3 0.2-0.3 0.2-0.2 0.3-0.2 0.3c-0.19998 0.13336-0.73331 0.3667-1.6 0.70001-0.80002 0.33331-1.2667 0.83331-1.4 1.5-0.19998 0.66669-1.0666 1.5-2.6 2.5-1.4667 1-2.2667 1.8333-2.4 2.5-0.19998 0.66669-1.8667 1.9334-5 3.8-3.2 1.8-8.3 3.8667-15.3 6.2s-19.167 3.1667-36.5 2.5c-17.333-0.66669-27.833-1.5-31.5-2.5-3.6667-1-8.3333-2.6-14-4.8-5.6667-2.1334-8.5667-3.5333-8.7-4.2-0.19998-0.66669-1.6333-1.8333-4.3-3.5s-6.2333-5.2333-10.7-10.7c-4.5333-5.5333-7.8667-10.867-10-16-2.2-5.2-3.4666-12.967-3.8-23.3-0.33334-10.333 0.33334-18.167 2-23.5 1.6667-5.3333 4.1667-10.667 7.5-16 3.3333-5.3333 7.5667-10.067 12.7-14.2 5.2-4.2 11.133-7.6333 17.8-10.3 6.6667-2.6667 14.667-4.1 24-4.3z"/>
  <path id="svg_11" fill="#774b8e" stroke="#774b8e" d="m439 30.2l1-0.2-0.2 0.5c-0.19998 0.33333-0.39999 0.56667-0.59998 0.7l-0.2 0.3-0.2 0.3-0.3 0.2-0.3 0.2-0.2 0.3-0.2 0.3-0.3 0.2-0.3 0.2-0.2 0.3-0.2 0.3-0.3 0.2-0.3 0.2-0.2 0.3-0.2 0.3-0.3 0.2v1.5c0 1 0.10001 1.5667 0.29999 1.7l0.2 0.3 3.8 1.3c2.4667 0.8 3.9334 2.0333 4.4 3.7 0.53332 1.6667 1.4 2.8333 2.6 3.5 1.1333 0.66667 1.4667 1.2667 1 1.8-0.53332 0.46667 2.7 0.26667 9.7-0.6 7-0.8 10.5-1.5333 10.5-2.2 0-0.66667 1.1667-0.93333 3.5-0.8 2.3333 0.2 3.1667 0.46667 2.5 0.8-0.66666 0.33333-1 0.6-1 0.8v0.2l-0.5 0.2c-0.33334 0.2-0.5 0.4-0.5 0.6v0.2l-1 0.2c-0.66666 0.2-6.8333 3.8-18.5 10.8s-18.333 11.4-20 13.2c-1.6667 1.8667-2.8333 2.8667-3.5 3-0.66666 0.2-3 1.8667-7 5-4 3.2-6.1667 5.2-6.5 6-0.33334 0.86668-2.1 3.0667-5.3 6.6-3.1333 3.4667-5.2667 5.7-6.4 6.7-1.2 1-1.9666 1.9-2.3 2.7-0.33334 0.86668-2.5667 4.4-6.7 10.6-4.2 6.1333-8.6333 14.033-13.3 23.7-4.6667 9.6667-7.5667 16-8.7 19l-1.8 4.5-1-0.2-1-0.3-1-0.3c-0.66666-0.13333-1.2667-1.0333-1.8-2.7l-0.7-2.5-0.5 1-0.5 1v3l0.5 3.5c0.33334 2.3333 0.60001 5 0.79999 8l0.2 4.5-0.5-0.2-0.5-0.3-0.2-0.3-0.3-0.2-0.3-0.2-0.2-0.3-0.2-0.3-0.3-0.2-0.3 0.2-0.2 0.3-0.2 0.3-0.3 0.2-0.3-0.2-0.2-0.3-0.2-0.3-0.3-0.2-0.5-2.5c-0.33334-1.6667-0.60001-2.5667-0.79999-2.7-0.13333-0.2-0.70001 0.46666-1.7 2l-1.5 2.2-0.2-0.5c-0.19998-0.33333-0.53332-1.1667-1-2.5-0.53332-1.3333-1.3-2.2667-2.3-2.8-1-0.46666-5.5-0.86667-13.5-1.2s-14-0.33333-18 0-6.3333 1.0667-7 2.2c-0.66666 1.2-1.5 1.8667-2.5 2l-1.5 0.3-0.2 0.3-0.3 0.2-0.3-0.2-0.2-0.3-0.2-0.3-0.3-0.2-0.3 0.2-0.2 0.3-0.2 0.3-0.3 0.2-0.3 0.2-0.2 0.3-0.2 0.3-0.3 0.2-0.5-1-0.5-1h-0.5l0.2-2.5 0.3-2.5 6-17c4-11.333 7.4333-20.167 10.3-26.5 2.8-6.3333 4.5334-9.5 5.2-9.5 0.66666 0 2.8333-2.7333 6.5-8.2 3.6667-5.5333 7.3333-10.533 11-15 3.6667-4.5333 7.8333-8.6334 12.5-12.3 4.6667-3.6667 8.1667-6.7667 10.5-9.3 2.3333-2.4667 7.6667-6.3667 16-11.7s13.833-8.8333 16.5-10.5c2.6667-1.6667 8.3333-4.1667 17-7.5s14.167-5.1667 16.5-5.5c2.3333-0.33333 3.8333-0.6 4.5-0.8z"/>
  <path id="svg_12" fill="#693b84" stroke="#693b84" d="m356.8 171.5l0.2 0.5-0.2 5.5c-0.19998 3.6667-0.63333 5.8333-1.3 6.5-0.66666 0.66667-0.76666 1.1667-0.29999 1.5 0.53332 0.33333 0.79999 1 0.79999 2s-5.3333 2.1-16 3.3c-10.667 1.1333-17.733 2.1333-21.2 3-3.5333 0.8-11.4 2.8-23.6 6-12.133 3.1333-23.367 7.0333-33.7 11.7s-18.5 9-24.5 13-14.167 10.233-24.5 18.7l-15.5 12.8h-0.2c-0.2 0-0.40001 0.16666-0.60001 0.5l-0.2 0.5h-0.2c-0.2 0-0.40001 0.066681-0.60001 0.20001-0.13333 0.19998-1.1333 0.39999-3 0.59998-1.8 0.13333-3.3667 1.3667-4.7 3.7s-2.5667 3.6667-3.7 4c-1.2 0.33334-1.8 0.83334-1.8 1.5s-0.33333 1-1 1-1.0667 0.33334-1.2 1c-0.2 0.66666-1.5333 2-4 4-2.5333 2-7.3 8.5-14.3 19.5s-11.667 17.1-14 18.3c-2.3333 1.1333-7.6667 1.8667-16 2.2-8.3333 0.33334-14.167-0.066681-17.5-1.2-3.3333-1.2-5.1667-2.2-5.5-3-0.33334-0.86667-0.76667-1.5333-1.3-2-0.46667-0.53332-0.46667-3.0666 0-7.6 0.53333-4.4667 0.96666-7.9334 1.3-10.4l0.5-3.8 1.5-4c1-2.6667 1.8333-4 2.5-4 0.66666 0 2.4-2.3333 5.2-7 2.8667-4.6667 5.8667-9.1667 9-13.5 3.2-4.3333 6.2-7.6667 9-10 2.8667-2.3333 5.2-4.6667 7-7 1.8667-2.3333 6.1333-6.1 12.8-11.3 6.6667-5.1333 11.333-8.5333 14-10.2 2.6667-1.6667 9.3333-5.3333 20-11s21.833-10.5 33.5-14.5 21.833-6.8333 30.5-8.5c8.6667-1.6667 19.167-2.9333 31.5-3.8 12.333-0.8 18.767-2.8667 19.3-6.2 0.46668-3.3333 0.80002-5 1-5h0.70001l0.5 1 0.5 1 0.3-0.2 0.2-0.3 0.2-0.3 0.3-0.2 0.3-0.2 0.2-0.3 0.2-0.3 0.3-0.2 0.3 0.2 0.2 0.3 0.2 0.3 0.3 0.2 0.3-0.2 0.2-0.3 1.5-0.3c1-0.13333 1.8333-0.8 2.5-2 0.66666-1.1333 3-1.8667 7-2.2 4-0.33333 10-0.33333 18 0s12.5 0.73334 13.5 1.2c1 0.53334 1.7667 1.4667 2.3 2.8 0.46668 1.3333 0.80002 2.1667 1 2.5zm-164.3 85c0-1 0.16667-1.1667 0.5-0.5 0.33333 0.66666 0.33333 1.1667 0 1.5-0.33333 0.33334-0.5 0-0.5-1z"/>
  <path id="svg_13" fill="#7a4f91" stroke="#7a4f91" d="m349 887c6-0.33331 9.8333-0.16669 11.5 0.5s7.3333 1 17 1 16 0.5 19 1.5 6.3333 2.8333 10 5.5 6.7667 6.2333 9.3 10.7c2.4667 4.5333 3.7 10.133 3.7 16.8 0 6.6667-0.66666 11.667-2 15-1.3333 3.3333-2.5667 5.5-3.7 6.5-1.2 1-1.8667 1.8333-2 2.5-0.19998 0.66669-1.2 1.6667-3 3-1.8667 1.3333-2.8667 2.3333-3 3-0.19998 0.66669-2.2 1.9334-6 3.8-3.8667 1.8-9.1333 2.7-15.8 2.7h-17.5c-5 0-9.8333 0.16669-14.5 0.5s-8 0.16669-10-0.5-5.6667-2.4334-11-5.3c-5.3333-2.8-8.8333-5.6-10.5-8.4-1.6667-2.8666-3.1-5.8666-4.3-9-1.1333-3.2-1.8667-7.3-2.2-12.3-0.33334-5-0.066681-9.3333 0.79999-13 0.80002-3.6667 1.5334-5.5666 2.2-5.7 0.66666-0.20001 1.4-1.2 2.2-3 0.86667-1.8666 2.8667-4.0666 6-6.6 3.2-2.4667 6.4666-4.5333 9.8-6.2 3.3333-1.6667 8-2.6667 14-3z"/>
 </g>
</svg>
